<svg width="54" height="56" viewBox="0 0 54 56" fill="none" xmlns="http://www.w3.org/2000/svg">
<mask id="mask0_103_1208" style="mask-type:luminance" maskUnits="userSpaceOnUse" x="0" y="0" width="54" height="56">
<path d="M0 0H53.6421V56H0V0Z" fill="white"/>
</mask>
<g mask="url(#mask0_103_1208)">
<path d="M26.8212 0C12.0414 0 0.0185547 12.0504 0.0185547 26.861C0.0185547 34.2816 3.11483 41.4013 8.51834 46.4717V55.0682C8.51834 55.5825 8.93588 56.0015 9.45013 56.0015H44.203C44.7172 56.0015 45.1348 55.5825 45.1348 55.0682V46.461C50.5306 41.3906 53.6223 34.2754 53.6223 26.861C53.6223 12.0504 41.5995 0 26.8212 0ZM43.2712 54.1349H10.3804V37.077H43.2712V54.1349ZM39.9155 35.2103H29.5398L32.521 26.3099L38.3911 29.1483C39.3168 29.5965 39.9155 30.5498 39.9155 31.5798V35.2103ZM22.7931 25.1232L25.8894 27.9064V34.65L22.7256 25.2061L22.7931 25.1232ZM30.9275 25.2046L27.7514 34.6853V27.9156L30.86 25.1232L30.9275 25.2046ZM26.8212 22.1498C24.0227 22.1498 21.7462 19.8686 21.7462 17.064V13.0897C21.7462 10.2866 24.0227 8.00395 26.8212 8.00395C29.6181 8.00395 31.8947 10.2866 31.8947 13.0897V17.064C31.8947 19.8671 29.6181 22.1498 26.8212 22.1498ZM26.8212 24.0165C27.7699 24.0165 28.6756 23.823 29.4999 23.4761L29.6718 23.6833L26.8258 26.2408L23.9813 23.6849L24.1501 23.4792C24.9729 23.8246 25.874 24.0165 26.8212 24.0165ZM21.1322 26.3099L24.1118 35.2103H13.7376V31.5798C13.7376 30.5498 14.3363 29.5965 15.2604 29.1483L21.1322 26.3099ZM45.1348 43.8114V36.1452C45.1348 35.6294 44.7172 35.2118 44.203 35.2118H41.7775V31.5798C41.7775 29.839 40.7659 28.2241 39.2001 27.4673L32.5624 24.259L31.1194 22.5105C32.7236 21.2349 33.7582 19.27 33.7582 17.064V13.0897C33.7582 9.25658 30.6451 6.13728 26.8212 6.13728C22.9957 6.13728 19.8826 9.25658 19.8826 13.0897V17.064C19.8826 19.273 20.9203 21.241 22.5291 22.5151L21.0907 24.2575L14.4514 27.4673C12.8872 28.2241 11.8756 29.839 11.8756 31.5798V35.2103H9.45013C8.93588 35.2103 8.51834 35.6294 8.51834 36.1436V43.8252C4.28149 39.2261 1.88215 33.1594 1.88215 26.861C1.88215 13.0789 13.0699 1.86667 26.8212 1.86667C40.5725 1.86667 51.7602 13.0789 51.7602 26.861C51.7587 33.1533 49.3639 39.2138 45.1348 43.8114Z" fill="#545454"/>
</g>
</svg>
