<svg width="46" height="62" viewBox="0 0 46 62" fill="none" xmlns="http://www.w3.org/2000/svg">
<path d="M16.5366 32.8938C11.1565 32.8938 6.77002 28.5232 6.77002 23.1643V17.6274C6.77002 15.184 8.59508 11.4934 11.116 11.3983C12.2734 11.3577 13.1049 11.8862 13.8395 12.3619C15.1343 13.1899 16.3604 13.9755 19.889 11.7647C20.9371 11.1129 22.1897 11.1534 23.3893 11.8862C25.0787 12.9186 26.3031 15.3338 26.3031 17.6274V23.1643C26.3172 28.5232 21.9307 32.8938 16.5366 32.8938ZM11.2393 12.9591C11.2111 12.9591 11.197 12.9591 11.1706 12.9591C9.90398 12.9996 8.33788 15.5769 8.33788 17.6274V23.1643C8.33788 27.6688 12.0144 31.333 16.5366 31.333C21.0604 31.333 24.737 27.6688 24.737 23.1643V17.6274C24.737 15.8623 23.8104 13.9755 22.5719 13.2304C21.8761 12.8093 21.2507 12.7547 20.7187 13.0947C16.3463 15.8217 14.4807 14.6414 12.9816 13.6778C12.3685 13.2709 11.8788 12.9591 11.2393 12.9591Z" fill="#545454"/>
<path d="M7.56112 24.7109H5.8858C4.53638 24.7109 3.43359 23.6117 3.43359 22.2676V20.3685C3.43359 19.0244 4.53638 17.9251 5.8858 17.9251H7.56112C7.99624 17.9251 8.35033 18.2774 8.35033 18.7126V23.9376C8.338 24.3586 7.99624 24.7109 7.56112 24.7109ZM5.8858 19.4718C5.3943 19.4718 4.99969 19.8664 4.99969 20.3544V22.2535C4.99969 22.7432 5.3943 23.136 5.8858 23.136H6.77014V19.4718H5.8858Z" fill="#545454"/>
<path d="M27.2031 24.7109H25.5278C25.0909 24.7109 24.7368 24.3586 24.7368 23.9235V18.6984C24.7368 18.2651 25.0909 17.911 25.5278 17.911H27.2031C28.5508 17.911 29.6553 19.0102 29.6553 20.3544V22.2534C29.6553 23.6116 28.5508 24.7109 27.2031 24.7109ZM26.317 23.136H27.2031C27.6928 23.136 28.0875 22.7432 28.0875 22.2534V20.3544C28.0875 19.8664 27.6928 19.4718 27.2031 19.4718H26.317V23.136Z" fill="#545454"/>
<mask id="mask0_88_390" style="mask-type:luminance" maskUnits="userSpaceOnUse" x="4" y="0" width="27" height="20">
<path d="M4.77588 0.897095H30.0308V19.8206H4.77588V0.897095Z" fill="white"/>
</mask>
<g mask="url(#mask0_88_390)">
<path d="M6.23987 19.4718C5.8576 19.4718 5.5176 19.2005 5.46299 18.8077L5.39428 18.4008C4.75481 14.1799 3.77358 7.84326 9.18181 5.8755C9.68564 4.70754 11.5512 1.40975 16.933 0.907679C17.192 0.881254 17.4369 0.988715 17.6007 1.17897C17.7628 1.36923 17.8315 1.62643 17.7628 1.8713L17.2466 3.98879C18.9765 3.10621 21.7687 2.11616 24.4112 3.01108C24.6279 3.09211 24.8058 3.25595 24.8868 3.47263C24.9696 3.68931 24.9555 3.93418 24.8322 4.13853L23.2661 6.87964C24.4922 6.79684 26.1957 6.90606 27.5716 8.01942C28.9474 9.13101 29.6961 10.9631 29.7771 13.4735C29.8458 15.2386 29.6679 17.4918 27.7336 19.2693C27.4218 19.567 26.9162 19.5405 26.6309 19.2287C26.3314 18.9152 26.3578 18.4131 26.6714 18.1295C27.8429 17.0425 28.2921 15.7125 28.211 13.5422C28.1423 11.5057 27.598 10.0541 26.5903 9.25433C25.1458 8.08636 23.0477 8.46688 22.2585 8.60252C21.9185 8.66947 21.4411 8.75226 21.1557 8.29071C20.9918 8.04584 20.9918 7.71994 21.1275 7.46274L22.9526 4.27417C19.8344 3.85314 16.5367 6.22783 16.4961 6.25426C16.2248 6.44451 15.8708 6.45861 15.5977 6.26835C15.3247 6.09219 15.189 5.75219 15.27 5.42629L15.9659 2.61823C11.5935 3.45853 10.5841 6.56607 10.5436 6.71581C10.4625 6.96067 10.2723 7.16326 10.0256 7.23197C5.83117 8.53382 6.15708 12.9591 6.94805 18.1559L7.01676 18.5769C7.0837 18.998 6.78422 19.4049 6.36143 19.4718C6.30681 19.4718 6.2663 19.4718 6.23987 19.4718Z" fill="#545454"/>
</g>
<mask id="mask1_88_390" style="mask-type:luminance" maskUnits="userSpaceOnUse" x="0" y="35" width="33" height="27">
<path d="M0 35.154H32.7366V61.1029H0V35.154Z" fill="white"/>
</mask>
<g mask="url(#mask1_88_390)">
<path d="M24.9959 61.0923H0.790976C0.35409 61.0923 0 60.74 0 60.3066V47.8483C0 45.1477 0.817401 42.5282 2.38526 40.3032C3.91084 38.1311 6.00719 36.4769 8.47349 35.5133C8.88219 35.3495 9.33141 35.5538 9.49524 35.9608C9.65907 36.3677 9.45472 36.8152 9.04602 36.979C4.57674 38.7283 1.56786 43.0989 1.56786 47.8624V59.5333H24.9818C25.4187 59.5333 25.7728 59.8856 25.7728 60.319C25.7728 60.7541 25.4187 61.0923 24.9959 61.0923ZM31.5351 44.3744C31.2215 44.3744 30.908 44.1841 30.7988 43.8582C29.6414 40.7102 27.1751 38.1998 24.0429 36.979C23.6342 36.8152 23.4439 36.3677 23.5936 35.9608C23.7434 35.5538 24.2067 35.3636 24.6154 35.5133C28.1704 36.8962 30.9626 39.7465 32.2838 43.3156C32.4336 43.7226 32.2292 44.17 31.8205 44.3198C31.7254 44.3603 31.6302 44.3744 31.5351 44.3744Z" fill="#545454"/>
</g>
<path d="M16.5367 39.0683C16.1827 39.0683 15.8832 38.8516 15.7739 38.5398L12.492 36.151C12.3423 36.1229 12.2066 36.0559 12.0974 35.9467C11.9336 35.797 11.8525 35.5944 11.8525 35.3777V31.2114C11.8525 30.9401 11.9882 30.6952 12.219 30.5455C12.4515 30.3958 12.7369 30.3834 12.9818 30.505C14.0986 31.0476 15.2983 31.3189 16.5508 31.3189C17.8051 31.3189 19.003 31.0476 20.1199 30.505C20.3648 30.3834 20.6519 30.3958 20.8827 30.5455C21.1135 30.6952 21.2509 30.9401 21.2509 31.2114V35.4041C21.2509 35.6613 21.1276 35.8921 20.9091 36.0418L17.3136 38.5398C17.178 38.864 16.8785 39.0683 16.5367 39.0683ZM13.4186 34.8879L16.5508 37.1675L19.6707 34.9972V32.3917C18.663 32.7299 17.6131 32.9079 16.5367 32.9079C15.4621 32.9079 14.4122 32.7299 13.4045 32.3917V34.8879H13.4186Z" fill="#545454"/>
<mask id="mask2_88_390" style="mask-type:luminance" maskUnits="userSpaceOnUse" x="6" y="50" width="3" height="12">
<path d="M6.12891 50.0363H8.38381V61.1029H6.12891V50.0363Z" fill="white"/>
</mask>
<g mask="url(#mask2_88_390)">
<path d="M7.23355 61.0923C6.79843 61.0923 6.44434 60.74 6.44434 60.3066V51.1056C6.44434 50.6705 6.79843 50.3181 7.23355 50.3181C7.67044 50.3181 8.02453 50.6705 8.02453 51.1056V60.3066C8.02453 60.74 7.67044 61.0923 7.23355 61.0923Z" fill="#545454"/>
</g>
<path d="M12.6012 45.3785C12.5607 45.3785 12.5061 45.3785 12.4638 45.3644C11.5795 45.2429 11.088 44.0485 11.0616 43.9939L8.0245 36.5175C7.94171 36.3131 7.94171 36.0965 8.03684 35.9062C8.13373 35.7159 8.28346 35.5662 8.48782 35.4852C9.98521 34.9426 11.3205 34.6572 12.7105 34.5903C12.8866 34.5762 13.0646 34.6308 13.2143 34.74L16.838 37.3719C17.0952 37.5621 17.2467 37.8475 17.3136 38.2263C17.4088 38.8922 17.1639 40.0038 16.8098 40.4794L13.4186 44.9716C13.2143 45.2288 12.9148 45.3785 12.6012 45.3785ZM9.79495 36.7077L12.5184 43.4249C12.5325 43.4513 12.5466 43.4795 12.5607 43.5059L15.5432 39.5563C15.6524 39.3802 15.774 38.8235 15.7616 38.5522L12.5184 36.1916C11.62 36.2462 10.7339 36.4083 9.79495 36.7077Z" fill="#545454"/>
<path d="M20.488 45.3785C20.1745 45.3785 19.875 45.2287 19.6706 44.9715L16.2795 40.4794C16.1562 40.3173 16.061 40.0988 15.9659 39.8275C15.8285 39.3942 15.4339 37.9426 16.2654 37.3718L20.0106 34.7664C20.1463 34.6712 20.3242 34.6166 20.5021 34.6307C21.9185 34.6977 23.2662 34.983 24.6156 35.4992C24.8058 35.5802 24.9697 35.73 25.0507 35.9202C25.1335 36.1105 25.1335 36.3272 25.0648 36.5298L22.0136 43.9938C21.9995 44.0484 21.4957 45.2428 20.6096 45.3644C20.5691 45.3644 20.5286 45.3785 20.488 45.3785ZM17.5461 39.5439L20.5286 43.4918C20.5427 43.4653 20.555 43.4371 20.5691 43.4107L23.2943 36.6936C22.4364 36.4223 21.5767 36.2726 20.6783 36.2056L17.3136 38.5398C17.3136 38.7019 17.3418 39.0137 17.4492 39.3396C17.5038 39.4488 17.532 39.5298 17.5461 39.5439Z" fill="#545454"/>
<path d="M19.1122 46.5729H13.9629C13.5824 46.5729 13.2547 46.3016 13.186 45.9211L12.7914 43.5728C12.7509 43.3561 12.8055 43.1395 12.9411 42.9756L15.5431 39.5439C15.6118 39.4206 15.7474 38.9873 15.7615 38.6208C15.7615 38.6068 15.7615 38.5803 15.7615 38.5662C15.7615 38.5521 15.7615 38.5398 15.7615 38.5116C15.7615 38.457 15.7474 38.4306 15.7474 38.4306C15.6523 38.1188 15.7474 37.7788 16.0064 37.5762L16.0469 37.5339C16.3323 37.3049 16.741 37.3049 17.0281 37.5339L17.0687 37.5762C17.3276 37.7788 17.4228 38.1188 17.3276 38.4306C17.3276 38.4306 17.3276 38.457 17.3135 38.5116C17.3135 38.5257 17.3135 38.5398 17.3135 38.5521C17.3135 38.5662 17.3135 38.5803 17.3135 38.6068C17.3276 38.8234 17.3681 39.0947 17.4492 39.3255C17.4915 39.4347 17.5179 39.5158 17.532 39.5299L20.1198 42.9633C20.2431 43.1395 20.2978 43.3561 20.2696 43.5605L19.875 45.907C19.8203 46.3016 19.4927 46.5729 19.1122 46.5729ZM14.6306 45.0121H18.4445L18.6753 43.6415L16.5366 40.8053L14.398 43.6556L14.6306 45.0121Z" fill="#545454"/>
<mask id="mask3_88_390" style="mask-type:luminance" maskUnits="userSpaceOnUse" x="10" y="44" width="13" height="18">
<path d="M10.6387 44.6245H22.3641V61.1029H10.6387V44.6245Z" fill="white"/>
</mask>
<g mask="url(#mask3_88_390)">
<path d="M21.21 61.0924H11.8645C11.6337 61.0924 11.4153 60.9849 11.2656 60.8087C11.1158 60.6326 11.0471 60.4018 11.0876 60.171L13.6491 45.6498C13.7178 45.2693 14.0437 44.998 14.4259 44.998H18.5394C18.9216 44.998 19.2475 45.2693 19.3163 45.6357L21.9851 60.1569C22.0274 60.3877 21.9728 60.6185 21.8231 60.7946C21.6733 60.9708 21.4549 61.0924 21.21 61.0924ZM12.8052 59.5333H20.2693L17.8858 46.587H15.0795L12.8052 59.5333Z" fill="#545454"/>
</g>
<mask id="mask4_88_390" style="mask-type:luminance" maskUnits="userSpaceOnUse" x="24" y="47" width="21" height="15">
<path d="M24.168 47.7814H44.0111V61.1029H24.168V47.7814Z" fill="white"/>
</mask>
<g mask="url(#mask4_88_390)">
<path d="M43.1671 61.0923H24.9958C24.5606 61.0923 24.2065 60.74 24.2065 60.3066V48.9617C24.2065 48.5266 24.5606 48.1742 24.9958 48.1742H43.1812C43.6163 48.1742 43.9704 48.5266 43.9704 48.9617V60.3066C43.9581 60.74 43.604 61.0923 43.1671 61.0923ZM25.7726 59.5333H42.3779V49.7615H25.7726V59.5333Z" fill="#545454"/>
</g>
<mask id="mask5_88_390" style="mask-type:luminance" maskUnits="userSpaceOnUse" x="21" y="42" width="25" height="9">
<path d="M21.9131 42.3696H46V50.0363H21.9131V42.3696Z" fill="white"/>
</mask>
<g mask="url(#mask5_88_390)">
<path d="M43.5353 49.7474H24.6276C23.2659 49.7474 22.1631 48.6481 22.1631 47.2917V45.257C22.1631 43.8987 23.2659 42.7995 24.6276 42.7995H43.5353C44.897 42.7995 45.9998 43.8987 45.9998 45.257V47.2917C45.9998 48.6481 44.897 49.7474 43.5353 49.7474ZM24.6276 44.3744C24.1379 44.3744 23.7292 44.7672 23.7292 45.2693V47.3057C23.7292 47.7937 24.1238 48.2007 24.6276 48.2007H43.5353C44.025 48.2007 44.4337 47.8078 44.4337 47.3057V45.2693C44.4337 44.7813 44.0391 44.3744 43.5353 44.3744H24.6276Z" fill="#545454"/>
</g>
<mask id="mask6_88_390" style="mask-type:luminance" maskUnits="userSpaceOnUse" x="31" y="47" width="6" height="15">
<path d="M31.3838 47.7814H36.7955V61.1029H31.3838V47.7814Z" fill="white"/>
</mask>
<g mask="url(#mask6_88_390)">
<path d="M35.867 61.0923H32.3102C31.8751 61.0923 31.521 60.74 31.521 60.3066V48.9617C31.521 48.5266 31.8751 48.1742 32.3102 48.1742H35.867C36.3021 48.1742 36.6562 48.5266 36.6562 48.9617V60.3066C36.6421 60.74 36.288 61.0923 35.867 61.0923ZM33.0871 59.5333H35.076V49.7615H33.0871V59.5333Z" fill="#545454"/>
</g>
<path d="M43.1675 57.1991H35.8532C35.4163 57.1991 35.0622 56.845 35.0622 56.4117V52.8567C35.0622 52.4216 35.4163 52.0692 35.8532 52.0692H43.1675C43.6044 52.0692 43.9585 52.4216 43.9585 52.8567V56.4117C43.9585 56.845 43.6044 57.1991 43.1675 57.1991ZM36.6424 55.6383H42.3783V53.6565H36.6424V55.6383ZM32.2982 57.1991H24.9821C24.547 57.1991 24.1929 56.845 24.1929 56.4117V52.8567C24.1929 52.4216 24.547 52.0692 24.9821 52.0692H32.2982C32.7333 52.0692 33.0874 52.4216 33.0874 52.8567V56.4117C33.0874 56.845 32.7333 57.1991 32.2982 57.1991ZM25.7731 55.6383H31.5072V53.6565H25.7731V55.6383Z" fill="#545454"/>
<path d="M36.3971 41.3214C35.962 41.3214 35.6079 40.9674 35.6079 40.534V34.6977C35.6079 34.2643 35.962 33.912 36.3971 33.912C36.834 33.912 37.1881 34.2643 37.1881 34.6977V40.534C37.1881 40.9674 36.834 41.3214 36.3971 41.3214Z" fill="#545454"/>
<path d="M34.4491 37.1006C34.2183 37.1006 33.9999 37.0054 33.8502 36.8152C33.5789 36.4893 33.6194 35.9872 33.9453 35.7159L35.8937 34.1023C36.1791 33.8574 36.6018 33.8574 36.9013 34.1023L38.8497 35.7159C39.1774 35.9872 39.2302 36.4893 38.9448 36.8152C38.6718 37.1411 38.1679 37.1957 37.842 36.9103L36.3975 35.7036L34.953 36.9103C34.8032 37.046 34.627 37.1006 34.4491 37.1006Z" fill="#545454"/>
<path d="M29.955 36.1775C29.5182 36.1775 29.1641 35.8252 29.1641 35.39V29.5555C29.1641 29.1204 29.5182 28.768 29.955 28.768C30.3902 28.768 30.7443 29.1204 30.7443 29.5555V35.39C30.7302 35.8393 30.3902 36.1775 29.955 36.1775Z" fill="#545454"/>
<path d="M27.9923 31.9566C27.7616 31.9566 27.5431 31.8615 27.3934 31.673C27.1203 31.3471 27.1626 30.845 27.4885 30.5737L29.4369 28.9583C29.7223 28.7134 30.1451 28.7134 30.4445 28.9583L32.3929 30.5737C32.7188 30.845 32.7734 31.3471 32.488 31.673C32.215 31.9971 31.7112 32.0517 31.3852 31.7681L29.9407 30.5596L28.4962 31.7681C28.3464 31.9038 28.1703 31.9566 27.9923 31.9566Z" fill="#545454"/>
<path d="M42.8537 36.1775C42.4185 36.1775 42.0645 35.8252 42.0645 35.39V29.5555C42.0645 29.1204 42.4185 28.768 42.8537 28.768C43.2906 28.768 43.6446 29.1204 43.6446 29.5555V35.39C43.6306 35.8393 43.2765 36.1775 42.8537 36.1775Z" fill="#545454"/>
<path d="M40.8928 31.9566C40.6603 31.9566 40.4436 31.8615 40.2939 31.673C40.0208 31.3471 40.0613 30.845 40.389 30.5737L42.3356 28.9583C42.6227 28.7134 43.0438 28.7134 43.345 28.9583L45.2916 30.5737C45.6193 30.845 45.6739 31.3471 45.3868 31.673C45.1155 31.9971 44.6116 32.0517 44.284 31.7681L42.8412 30.5596L41.3966 31.7681C41.2469 31.9038 41.069 31.9566 40.8928 31.9566Z" fill="#545454"/>
</svg>
