<svg width="112" height="92" viewBox="0 0 112 92" fill="none" xmlns="http://www.w3.org/2000/svg">
<mask id="mask0_103_1587" style="mask-type:luminance" maskUnits="userSpaceOnUse" x="0" y="0" width="112" height="92">
<path d="M0 0H111.11V91.3333H0V0Z" fill="white"/>
</mask>
<g mask="url(#mask0_103_1587)">
<path d="M101.586 63.3393V26.1817L84.613 22.1449C84.6186 20.6588 84.6354 16.6697 84.6354 16.9225C84.6354 15.6528 83.7393 14.5291 82.5229 14.2538L56.6556 7.90774C56.3354 7.82909 56.0825 7.62963 55.9477 7.35152L54.6021 4.52825C54.22 3.71639 53.4672 3.1405 52.5935 2.98599L39.3059 0.550398C38.2271 0.345326 37.1175 0.789182 36.5023 1.68251L35.1398 3.65178L33.6256 3.50289C31.9822 3.57031 31.4288 5.17156 31.3614 6.07613C31.3614 10.4108 31.2041 14.6077 31.044 19.0238L23.4984 23.0916L21.973 22.8107C20.9139 22.6084 19.8183 23.0522 19.1862 23.94L17.8069 25.9233L16.304 25.766C14.9724 25.8278 14.1858 26.9065 14.0566 28.1931L13.551 28.4684C13.3684 28.4488 12.593 28.2353 12.1042 28.3785C11.5592 28.3785 10.5844 28.9685 10.281 29.5247L9.49725 30.6428L8.06455 31.4153L7.38472 31.3479C6.28912 31.3928 5.68514 32.1176 5.37894 32.862L0.659447 35.4044V35.4353C0.226827 35.5561 0.0245636 35.9157 0.0273726 36.2612L0.381334 74.5761C0.381334 74.9666 0.645401 75.3065 1.02184 75.4077L58.3552 90.6898C58.3917 90.7179 58.4086 90.7601 58.4479 90.7797C58.7232 90.937 59.0603 90.9286 59.3216 90.7713L70.477 84.0854L111.079 64.859L101.586 63.3393ZM99.617 29.727L99.5412 46.189L59.9396 67.4379L60.0885 50.414L99.617 29.727ZM33.0835 6.14636C33.0863 6.13794 33.1734 5.2418 33.5751 5.21651L35.4741 5.41035C35.7831 5.43844 36.0921 5.30079 36.2719 5.04234L37.9237 2.6545C38.1541 2.32302 38.5671 2.15727 38.9912 2.23874L52.2873 4.67714C52.6188 4.73614 52.8941 4.94683 53.0401 5.25865L54.3914 8.09315C54.7538 8.83479 55.4252 9.37416 56.2427 9.57642L82.124 15.9224C82.5791 16.0264 82.9106 16.4478 82.9106 16.9225L82.6999 36.6404L67.2323 44.7366L67.3166 39.1856C67.3166 37.913 66.412 36.7893 65.1872 36.514L39.3003 30.168C39.0193 30.1034 38.7665 29.8955 38.6289 29.6118L37.2832 26.7885C36.9012 25.9766 36.1483 25.4008 35.2718 25.2491L32.5947 24.7574C32.752 18.8019 33.1003 11.8069 33.0835 6.14636ZM15.877 27.9459C16.0427 27.4992 16.259 27.488 16.2534 27.4768L18.1272 27.6875C18.4643 27.7324 18.7592 27.5835 18.939 27.3195L20.5965 24.9288C20.8381 24.5917 21.2538 24.4231 21.6556 24.499L34.9684 26.9402C35.2999 26.9992 35.5752 27.2099 35.7241 27.5217L37.0754 30.3534C37.4406 31.1091 38.1316 31.6653 38.907 31.8395L64.7911 38.1855C65.2546 38.2895 65.5917 38.7108 65.5917 39.1828L65.5749 42.9415L65.499 45.644C65.3221 45.7339 58.3608 49.3915 58.8019 49.1583L58.3608 49.0544L58.3917 44.7703C58.3917 43.4949 57.5237 42.3881 56.2792 42.0791L30.4203 35.7583C30.1001 35.6741 29.8388 35.4662 29.7068 35.1796L28.3724 32.3451C27.9932 31.567 27.2515 30.9967 26.3638 30.8141L15.7702 28.8729C15.7759 28.5246 15.7253 28.3252 15.877 27.9459ZM11.8373 30.3281C11.9834 30.1961 12.1323 30.1118 12.1239 30.0978C12.3486 30.0978 12.3739 30.0191 12.7475 30.0669L26.0351 32.4997C26.3807 32.5699 26.6728 32.7918 26.8133 33.084L28.1448 35.9072C28.496 36.6573 29.1646 37.2079 29.9989 37.4214L55.8634 43.7478C56.3354 43.8658 56.6669 44.2843 56.6669 44.7703C56.6669 44.9445 56.6612 48.8971 56.6612 48.6499L6.84535 36.7865V33.9829C6.84535 33.9745 6.93243 33.0868 7.33415 33.0615L9.23038 33.2553C9.5422 33.2862 9.8484 33.1486 10.0282 32.8929C10.5001 32.2187 11.7109 30.4573 11.8373 30.3281ZM57.9788 88.8105L2.10339 73.916L1.76347 37.3456L57.9788 50.7287V88.8105ZM59.889 72.9861L99.5187 50.9028C99.5187 51.0742 99.4456 65.6372 99.4513 64.713L59.7514 88.5071L59.889 72.9861Z" fill="#B436E2"/>
</g>
<path d="M21.4423 60.5638L36.4604 64.4433C38.3988 64.9433 40.1348 63.8646 40.3371 62.0358C40.5394 60.2042 39.132 58.3136 37.1936 57.8135L22.1783 53.934C20.24 53.434 18.5039 54.5099 18.3016 56.3415C18.0993 58.1731 19.5039 60.0609 21.4423 60.5638Z" fill="#B436E2"/>
<path d="M42.736 16.681C75.1684 24.5608 73.6823 24.2321 73.8846 24.2321C74.9043 24.2321 75.0701 22.777 74.0897 22.5382L43.1489 15.0123C42.6798 14.8999 42.2191 15.1808 42.1067 15.6416C41.9915 16.1023 42.2753 16.5686 42.736 16.681Z" fill="#B436E2"/>
<path d="M67.3226 29.0359L46.6664 24.0439C46.2029 23.9315 45.7365 24.2152 45.6242 24.6731C45.5118 25.1367 45.7955 25.6002 46.2591 25.7125C68.2637 31.0192 66.9209 30.727 67.1203 30.727C68.1401 30.727 68.3058 29.2718 67.3226 29.0359Z" fill="#B436E2"/>
<path d="M92.9171 11.8548C93.3919 11.8548 93.7795 11.4727 93.7795 10.998L93.7964 4.05921C93.7992 3.58445 93.4143 3.19959 92.9368 3.19678H92.934C92.4592 3.19678 92.0744 3.58164 92.0715 4.05359L92.0547 10.9952C92.0547 11.4699 92.4396 11.8548 92.9171 11.8548Z" fill="#B436E2"/>
<path d="M100.746 5.37387C100.325 5.16037 99.8024 5.32893 99.5889 5.75593L96.1504 12.5851C95.9369 13.0093 96.1083 13.5262 96.5353 13.7397C96.9538 13.9504 97.4763 13.7847 97.6927 13.3549L101.131 6.52565C101.345 6.10146 101.173 5.58457 100.746 5.37387Z" fill="#B436E2"/>
<path d="M100.356 16.3383C100.687 16.6782 101.235 16.6867 101.575 16.3552L107.988 10.1412C108.328 9.80968 108.337 9.2675 108.005 8.92759C107.674 8.58486 107.126 8.57924 106.783 8.91073L100.373 15.1247C100.03 15.4562 100.024 15.9984 100.356 16.3383Z" fill="#B436E2"/>
</svg>
