<svg width="71" height="59" viewBox="0 0 71 59" fill="none" xmlns="http://www.w3.org/2000/svg">
<mask id="mask0_103_1201" style="mask-type:luminance" maskUnits="userSpaceOnUse" x="0" y="0" width="71" height="59">
<path d="M0 0H70.5866V59H0V0Z" fill="white"/>
</mask>
<g mask="url(#mask0_103_1201)">
<path d="M24.5385 47.1783C26.3511 47.1783 27.8231 45.7092 27.8231 43.9042C27.8231 42.0976 26.3511 40.6301 24.5385 40.6301C22.7274 40.6301 21.2539 42.0976 21.2539 43.9042C21.2539 45.7092 22.7274 47.1783 24.5385 47.1783ZM24.5385 42.3794C25.3808 42.3794 26.0663 43.0634 26.0663 43.9027C26.0663 44.7419 25.3808 45.4245 24.5385 45.4245C23.6962 45.4245 23.0122 44.7419 23.0122 43.9027C23.0122 43.0634 23.6962 42.3794 24.5385 42.3794ZM47.5159 51.7406H43.2474C43.3589 51.6216 43.4674 51.4996 43.5698 51.3685C44.6758 49.9808 45.0449 48.3339 44.6411 46.6072L42.2515 36.4007C41.6412 33.7941 39.7111 31.8911 37.0879 31.3141L29.47 29.6356V27.3092C31.2449 25.9863 32.4653 23.9643 32.7275 21.6575H32.9249C35.1684 21.6575 36.993 19.8389 36.993 17.603C36.993 16.6793 36.6826 15.8296 36.1598 15.147C36.7128 13.8814 36.993 12.5359 36.993 11.1407C36.993 5.55525 32.4337 1.011 26.8302 1.011H22.2543C16.6508 1.011 12.093 5.55525 12.093 11.1407C12.093 12.5359 12.3718 13.8814 12.9262 15.147C12.4049 15.828 12.093 16.6793 12.093 17.6014C12.093 19.8374 13.9177 21.656 16.1612 21.656H16.357C16.6177 23.9628 17.8411 25.9848 19.6161 27.3077V29.6341L11.9966 31.3126C9.37491 31.8896 7.4448 33.7926 6.83308 36.3992L5.87933 40.4749H5.83714C4.84873 40.4749 4.0351 41.2237 3.93415 42.182H2.00405C0.901135 42.182 0.00463867 43.0755 0.00463867 44.1739V47.4796C0.00463867 48.5795 0.901135 49.473 2.00405 49.473H3.92361V50.6121C3.92361 51.0114 4.00648 51.3911 4.15414 51.7376H1.56861C0.706768 51.7376 0.00614539 52.4367 0.00614539 53.2941V57.4044C0.00614539 58.2617 0.708275 58.9608 1.56861 58.9608H47.5204C48.3823 58.9608 49.0829 58.2617 49.0829 57.4044V53.2941C49.0829 52.4352 48.3823 51.7376 47.5204 51.7376L47.5159 51.7406ZM12.3748 40.4779H11.9755V36.8633C11.9755 36.4249 12.3341 36.0663 12.7756 36.0663H36.3044C36.7444 36.0663 37.1045 36.4249 37.1045 36.8633V51.7406H14.0593C14.2069 51.3941 14.2898 51.0129 14.2898 50.6151V42.3839C14.2898 41.3322 13.431 40.4764 12.3748 40.4764V40.4779ZM38.8613 49.25L42.9084 46.9191L42.9295 47.0065C43.2082 48.1923 42.9536 49.3254 42.1927 50.2806C41.4333 51.2344 40.3846 51.7406 39.1612 51.7406H38.8613V49.25ZM32.9219 19.9067H32.7787V15.3007H32.9219C34.195 15.3007 35.2317 16.3343 35.2317 17.6045C35.2317 18.8731 34.195 19.9067 32.9219 19.9067ZM22.2513 2.76331H26.8272C31.4634 2.76331 35.2317 6.52257 35.2317 11.1422C35.2317 12.1215 35.0644 13.0692 34.7344 13.9748C34.1875 13.7021 33.5728 13.5484 32.9219 13.5484H24.5882C23.315 13.5484 22.2784 12.5148 22.2784 11.2446C22.2784 9.97445 23.315 8.94235 24.5882 8.94235C25.0734 8.94235 25.4666 8.5491 25.4666 8.06544C25.4666 7.58329 25.0734 7.19004 24.5882 7.19004C22.5557 7.19004 20.8681 8.6832 20.5668 10.6269C18.8748 10.9146 17.4615 12.0356 16.7638 13.5469H16.1566C15.5042 13.5469 14.8895 13.7021 14.3441 13.9733C14.0141 13.0677 13.8453 12.12 13.8453 11.1407C13.8453 6.51955 17.6166 2.7618 22.2498 2.7618L22.2513 2.76331ZM13.8468 17.6045C13.8468 16.3343 14.8835 15.3007 16.1581 15.3007H16.3148C16.3058 15.4227 16.2998 15.5463 16.2998 15.6713V19.9052H16.1581C14.8835 19.9052 13.8468 18.8716 13.8468 17.603V17.6045ZM18.0566 20.7324V15.6713C18.0566 14.0757 19.1851 12.7302 20.6858 12.3882C21.183 14.0682 22.7455 15.2992 24.5882 15.2992H31.0219V20.7309C31.0219 24.2943 28.1139 27.1932 24.5385 27.1932C20.9646 27.1932 18.0551 24.2943 18.0551 20.7309L18.0566 20.7324ZM24.5385 28.9455C25.6625 28.9455 26.7323 28.7195 27.7101 28.3127V29.9219C25.652 31.4949 23.425 31.4949 21.3669 29.9219V28.3127C22.3432 28.7195 23.4145 28.9455 24.537 28.9455H24.5385ZM8.54019 36.8015C8.9922 34.8669 10.4266 33.4551 12.3718 33.0257L20.267 31.2854C21.6185 32.3251 23.0785 32.8479 24.5385 32.8479C25.9985 32.8479 27.46 32.3266 28.81 31.2854L36.7052 33.0257C38.6519 33.4551 40.0848 34.8669 40.5383 36.8015L42.4895 45.1382L38.8598 47.2265V36.8633C38.8598 35.4575 37.7132 34.3155 36.3029 34.3155H12.7756C11.3653 34.3155 10.2187 35.4575 10.2187 36.8633V40.4779H7.67834L8.54019 36.8015ZM1.99953 47.7237C1.86845 47.7237 1.75846 47.6137 1.75846 47.4826V44.1769C1.75846 44.0473 1.86845 43.9358 1.99953 43.9358H3.91909V47.7237H1.99953ZM5.67592 50.6151V42.3839C5.67592 42.301 5.74824 42.2287 5.83262 42.2287H12.3748C12.4592 42.2287 12.5315 42.301 12.5315 42.3839V50.6151C12.5315 51.2344 12.0252 51.7406 11.4029 51.7406H6.80596C6.18368 51.7406 5.67743 51.2344 5.67743 50.6151H5.67592ZM47.3216 57.2145H1.75846V53.4914H47.3216V57.2145ZM57.0037 0.0497131C49.5153 0.0497131 43.4222 6.12479 43.4222 13.5891C43.4222 21.0548 49.5153 27.1284 57.0037 27.1284C64.4936 27.1284 70.5868 21.0548 70.5868 13.5891C70.5868 6.12479 64.4936 0.0497131 57.0037 0.0497131ZM56.1253 6.67324C54.8762 6.62653 53.6603 6.48188 52.5182 6.24684C53.4102 4.00484 54.6909 2.41224 56.1253 1.94516V6.67324ZM56.1253 8.42706V12.7137H51.239C51.3053 10.996 51.5599 9.36574 51.9607 7.91477C53.2806 8.20105 54.6849 8.37583 56.1253 8.42706ZM56.1253 14.466V18.7526C54.6849 18.8038 53.2806 18.9771 51.9607 19.2634C51.5584 17.8139 51.3038 16.1851 51.239 14.466H56.1253ZM56.1253 20.5049V25.233C54.6909 24.7644 53.4102 23.1733 52.5182 20.9298C53.6603 20.6947 54.8762 20.5516 56.1253 20.5049ZM57.8836 20.5049C59.1327 20.5516 60.3471 20.6947 61.4907 20.9298C60.5987 23.1733 59.318 24.7659 57.8836 25.233V20.5049ZM57.8836 18.7511V14.4645H62.7699C62.7036 16.1821 62.449 17.8109 62.0482 19.2619C60.7283 18.9756 59.3241 18.8023 57.8836 18.7511ZM57.8836 12.7137V8.42706C59.3241 8.37583 60.7283 8.20105 62.0482 7.91477C62.4505 9.36423 62.7051 10.9945 62.7699 12.7137H57.8836ZM57.8836 6.67324V1.94516C59.318 2.41375 60.5987 4.00484 61.4907 6.24684C60.3471 6.48188 59.1327 6.62653 57.8836 6.67324ZM61.5434 2.70756C62.8905 3.26806 64.1094 4.07114 65.1505 5.05804C64.5524 5.34281 63.903 5.59292 63.2129 5.80688C62.7533 4.61657 62.1898 3.5694 61.5434 2.70756ZM50.796 5.80537C50.106 5.59292 49.4566 5.3413 48.8569 5.05653C49.8995 4.06963 51.1185 3.26655 52.464 2.70605C51.8191 3.5679 51.2556 4.61506 50.796 5.80537ZM50.2506 7.46878C49.8122 9.05385 49.5425 10.8242 49.4792 12.7122H45.2152C45.3915 10.3481 46.2653 8.17845 47.638 6.40655C48.4305 6.81788 49.3074 7.17497 50.2506 7.46878ZM49.4792 14.466C49.5425 16.3524 49.8122 18.1228 50.2506 19.7093C49.3074 20.0016 48.4305 20.3587 47.638 20.7716C46.2669 18.9982 45.3915 16.8285 45.2152 14.466H49.4792ZM50.796 21.3713C51.2556 22.5631 51.8191 23.6087 52.464 24.4721C51.1185 23.9116 49.8995 23.1085 48.8569 22.1201C49.4566 21.8353 50.106 21.5852 50.796 21.3713ZM63.2144 21.3713C63.9045 21.5852 64.5539 21.8353 65.152 22.1201C64.1109 23.1085 62.892 23.9116 61.545 24.4721C62.1913 23.6087 62.7548 22.5631 63.2144 21.3713ZM63.7583 19.7093C64.1968 18.1228 64.4665 16.3524 64.5298 14.466H68.7938C68.6175 16.8285 67.7436 18.9997 66.371 20.7716C65.5784 20.3602 64.7015 20.0016 63.7583 19.7093ZM64.5313 12.7137C64.468 10.8257 64.1983 9.05536 63.7598 7.47029C64.703 7.17648 65.5799 6.81939 66.3725 6.40806C67.7436 8.18146 68.619 10.3496 68.7953 12.7137H64.5313Z" fill="#00AD74"/>
</g>
</svg>
