<svg width="101" height="101" viewBox="0 0 101 101" fill="none" xmlns="http://www.w3.org/2000/svg">
<mask id="mask0_103_1628" style="mask-type:luminance" maskUnits="userSpaceOnUse" x="0" y="0" width="101" height="101">
<path d="M0 0H101V101H0V0Z" fill="white"/>
</mask>
<g mask="url(#mask0_103_1628)">
<path d="M94.5904 30.6963H86.5622V17.0273H86.5595C86.5595 16.7009 86.4327 16.3772 86.1953 16.1398L70.4275 0.369322C70.1848 0.129231 69.8637 0.00513906 69.5373 0.00513906L35.3446 0.00244141C33.1298 0.00244141 31.3251 1.80717 31.3251 4.02194V6.98935H27.1168C24.902 6.98935 23.1 8.79138 23.1 11.0089V30.699H15.0691C11.5351 30.699 8.66215 33.572 8.66215 37.1059V42.4473H6.40962C2.87569 42.4473 0 45.323 0 48.8542V94.5928C0 98.1241 2.87569 101 6.40962 101H94.5904C98.1243 101 101 98.1241 101 94.5928V37.1032C101 33.5693 98.1243 30.6963 94.5904 30.6963ZM70.7917 4.2944L82.2675 15.7702H72.2943C71.4661 15.7702 70.7917 15.0958 70.7917 14.2649V4.2944ZM35.3419 2.51395H68.2775V14.2649C68.2775 16.4797 70.0795 18.2844 72.297 18.2844H84.048V51.158H37.4191L33.842 47.2032V4.01654C33.842 3.18567 34.5164 2.51395 35.3473 2.51395H35.3419ZM27.1168 9.50356H31.3224V44.4219L29.9061 42.8573C29.6688 42.5929 29.3315 42.4446 28.9755 42.4446H25.6115V11.0035C25.6115 10.1753 26.2859 9.50087 27.1168 9.50087V9.50356ZM11.1737 37.1032C11.1737 34.9559 12.9217 33.2105 15.0664 33.2105H23.0973V42.4446H11.1737V37.1032ZM2.51421 94.5928V48.8542C2.51421 46.7068 4.25959 44.9615 6.40692 44.9615H28.417L35.9246 53.2594C36.1647 53.5238 36.5019 53.6722 36.858 53.6722H84.2881C86.4354 53.6722 88.1808 55.4203 88.1808 57.5649V94.5928C88.1808 96.0577 88.6744 97.4065 89.5053 98.4855H6.40692C4.25959 98.4855 2.51421 96.7375 2.51421 94.5928ZM98.4831 94.5928C98.4831 96.7402 96.7377 98.4855 94.5904 98.4855C92.4458 98.4855 90.6977 96.7375 90.6977 94.5928V57.5649C90.6977 54.8322 88.9766 52.4933 86.5622 51.5734V33.2105H94.5931C96.7404 33.2105 98.4858 34.9586 98.4858 37.1032V94.5928H98.4831ZM39.9657 16.4689C39.9657 15.7729 40.5295 15.2091 41.2228 15.2091H55.4286C56.1219 15.2091 56.6857 15.7729 56.6857 16.4689C56.6857 17.1622 56.1219 17.726 55.4286 17.726H41.2228C40.5295 17.726 39.9657 17.1622 39.9657 16.4689ZM39.9657 25.4548C39.9657 24.7615 40.5295 24.1977 41.2228 24.1977H76.6645C77.3578 24.1977 77.9216 24.7615 77.9216 25.4548C77.9216 26.1481 77.3578 26.7119 76.6645 26.7119H41.2228C40.5295 26.7119 39.9657 26.1481 39.9657 25.4548ZM39.9657 34.4406C39.9657 33.7473 40.5295 33.1835 41.2228 33.1835H76.6645C77.3578 33.1835 77.9216 33.7473 77.9216 34.4406C77.9216 35.1339 77.3578 35.6977 76.6645 35.6977H41.2228C40.5295 35.6977 39.9657 35.1339 39.9657 34.4406ZM39.9657 43.4265C39.9657 42.7332 40.5295 42.1694 41.2228 42.1694H55.4286C56.1219 42.1694 56.6857 42.7332 56.6857 43.4265C56.6857 44.1198 56.1219 44.6836 55.4286 44.6836H41.2228C40.5295 44.6836 39.9657 44.1198 39.9657 43.4265ZM40.1545 80.387C40.1545 81.0803 39.5907 81.6441 38.8974 81.6441H17.6939C16.9979 81.6441 16.4341 81.0803 16.4341 80.387C16.4341 79.6937 16.9979 79.1299 17.6939 79.1299H38.8974C39.5907 79.1299 40.1545 79.6937 40.1545 80.387ZM33.1568 87.2363C33.1568 87.9296 32.593 88.4934 31.8997 88.4934H17.6939C16.9979 88.4934 16.4341 87.9296 16.4341 87.2363C16.4341 86.543 16.9979 85.9792 17.6939 85.9792H31.8997C32.593 85.9792 33.1568 86.543 33.1568 87.2363Z" fill="#B436E2"/>
</g>
</svg>
