<svg width="100" height="100" viewBox="0 0 100 100" fill="none" xmlns="http://www.w3.org/2000/svg">
<mask id="mask0_285_1161" style="mask-type:luminance" maskUnits="userSpaceOnUse" x="0" y="0" width="100" height="100">
<path d="M0 0H100V100H0V0Z" fill="white"/>
</mask>
<g mask="url(#mask0_285_1161)">
<path d="M96.0785 2.7395C95.4876 2.26977 93.7524 1.4094 92.5941 1.53796C92.2777 1.38962 56.7549 -0.177821 54.28 1.09295L53.945 1.26106C51.6748 2.34888 45.6691 5.23654 42.9476 26.3204C38.6073 30.909 33.8901 38.8995 31.2292 44.7094C30.75 45.7577 28.1495 50.4699 27.8518 52.6109C26.6935 52.6406 24.5675 52.8928 22.5671 54.1141C22.4834 53.941 22.3903 53.768 22.3019 53.5949C20.1574 53.3378 8.37377 56.7694 1.90745 65.3137C0.925873 66.6141 0.339717 68.1914 0.255982 69.8528C0.00477146 74.6738 -0.0464006 86.1058 4.09856 95.5698C5.58721 98.9668 9.38326 100.401 12.5373 98.7393C18.6315 95.5154 28.6054 89.3445 34.1739 81.1068C30.2104 89.5868 26.1166 92.697 26.0654 92.7365C25.4514 93.1865 25.7351 94.215 26.4795 94.2446C37.3978 94.6254 68.8734 95.728 68.6594 95.728C70.1201 95.728 72.9532 91.0207 77.0703 81.7397C81.0478 72.874 81.9363 65.6697 82.0991 55.9288C84.1832 54.3366 86.579 52.3489 87.8769 50.1287C88.9515 48.2893 89.1748 46.0494 87.4722 44.8825C87.6722 44.6798 87.9932 44.482 87.9746 43.9875C88.9004 42.8601 89.9006 41.6339 90.2681 39.9725C90.6356 38.1776 89.9703 36.1849 88.3282 35.6113C88.705 35.1268 89.0213 34.6125 89.1237 34.4147H89.1283C91.3892 30.5184 88.9655 26.36 85.6207 27.2599C85.5974 27.156 85.5509 27.0571 85.4858 26.9681C85.9231 24.926 85.1183 22.8147 83.1598 22.2609C83.3459 21.1187 83.5459 20.0457 83.7599 19.037C85.6858 19.0864 99.0418 19.4375 99.0418 19.4375C99.3907 19.4424 99.8978 13.1628 99.5861 10.4037C99.2697 7.57534 98.3068 4.50968 96.0785 2.7395ZM32.6248 45.4363C33.9506 42.5437 35.4625 39.7055 37.1187 37.0107C40.2913 31.8435 43.8362 26.6912 48.2649 23.9371C48.5022 23.7937 48.7441 23.6602 48.9162 23.6602H48.9208C49.5163 23.6701 49.7582 23.9272 49.8838 24.12C50.5677 25.1535 50.1815 27.7791 49.4977 29.9151C48.5859 32.7632 46.646 35.4284 44.0409 37.426C43.7152 37.6732 43.3477 37.9501 43.036 38.3309C41.8451 39.7747 40.7147 45.1643 40.8031 46.3065C40.9984 48.7937 42.5522 51.0336 42.943 53.2636C43.3896 55.8151 43.1012 58.4456 42.0824 61.0811C40.1006 66.2284 38.7701 66.4855 38.4398 66.8514C38.3003 66.9948 38.1514 67.158 38.0118 67.336C34.1786 63.2023 31.727 58.0599 29.3637 53.1252C29.1683 52.0324 32.248 46.262 32.6248 45.4363ZM28.1681 54.2575C30.6895 59.5383 33.3366 64.9626 37.6676 69.2891C37.7792 69.4029 37.9188 69.4622 38.063 69.4869L38.37 69.9616C38.1095 72.6268 36.886 74.3722 35.8114 75.4205C33.6668 72.4982 27.9216 64.4236 23.3021 55.548C25.2095 54.3465 27.2936 54.2377 28.1681 54.2575ZM75.6654 81.0277C73.0463 86.9315 69.5805 93.6068 68.6873 94.0716L28.5264 92.6574C30.7779 90.3334 34.9927 84.9586 38.3607 74.7777C39.1469 73.5217 39.7982 71.89 39.9471 69.7935C39.9517 69.6847 39.9331 69.5809 39.9052 69.477C40.0913 68.7601 40.2727 68.0184 40.4402 67.2618C41.7102 65.9169 42.7895 63.6177 43.5245 61.709C44.6549 58.7769 44.9713 55.8299 44.4689 52.962C44.213 51.5033 43.5478 50.0743 43.0081 48.6552C43.1942 45.6291 43.1895 44.7935 43.3152 41.5251C43.9478 39.4484 44.2456 39.3099 44.948 38.7709C47.8137 36.5755 49.9536 33.6187 50.9677 30.4492C52.1214 26.8544 52.5169 22.068 48.9488 22.0037C48.437 22.0037 47.916 22.2411 47.4834 22.5081C46.5297 23.0965 45.6319 23.8085 44.7573 24.5749C47.4508 6.20074 52.5959 3.72348 54.5824 2.76917C54.7964 2.76423 52.9402 1.42918 89.6354 3.00651C83.8483 8.07969 81.6711 19.6452 80.9175 27.5615C79.7033 40.1901 81.3641 53.3032 79.9685 65.7043C79.3823 70.817 77.9355 75.9693 75.6654 81.0277ZM86.5558 49.2535C85.4718 51.1078 83.7227 52.5417 82.1084 53.857C82.1177 52.2104 82.1131 50.5738 82.0945 48.942C83.5552 48.1657 84.9275 47.2262 86.1603 46.1384C86.5278 46.1236 86.9884 46.4747 87.1047 46.895C87.3233 47.691 86.9279 48.6157 86.5558 49.2535ZM88.7515 39.6066C88.3607 41.3669 86.272 43.6661 84.988 44.8726C84.9089 44.9517 84.8531 45.0407 84.8205 45.1396C83.9599 45.8615 83.0388 46.4994 82.0712 47.068C82.0712 46.8999 82.0247 43.6018 82.0107 42.1382C83.8297 40.6647 85.509 39.0231 86.9837 37.2282C87.3699 37.0156 87.9746 37.1244 88.3049 37.4755C88.7515 37.965 88.919 38.7858 88.7515 39.6066ZM87.1559 28.9064C88.2817 29.3663 89.0213 31.3886 87.8351 33.495C86.2068 35.7795 84.4763 37.8315 82.0061 39.9923C82.0014 37.4755 82.0247 34.9488 82.1363 32.427C82.662 31.8238 83.1737 31.1908 83.6761 30.5332C83.8064 30.4838 83.9274 30.4096 84.0157 30.2909C84.7647 29.3119 86.0719 28.4614 87.1559 28.9064ZM83.9832 26.5478C83.8669 27.1412 83.6296 27.7444 83.2202 28.4861C82.9318 28.8965 82.6294 29.2921 82.3271 29.6827C82.3829 28.8965 82.4248 27.3736 82.9132 23.8926C83.8948 24.2634 84.1832 25.4798 83.9832 26.5478Z" fill="#8C4B00"/>
</g>
<path d="M79.3822 12.8757L52.2237 11.8918C51.8096 11.872 51.4328 12.2379 51.4189 12.6928C51.4049 13.1477 51.7399 13.5334 52.1725 13.5482C62.6303 13.9289 79.5776 14.5322 79.3543 14.5322C79.773 14.5322 80.1172 14.1811 80.1312 13.7312C80.1452 13.2763 79.8102 12.8906 79.3822 12.8757Z" fill="#8C4B00"/>
<path d="M76.5303 20.1344L54.2006 19.1109C53.1585 19.0416 53.1027 20.7179 54.1308 20.7673C61.2484 21.0936 76.6838 21.7859 76.4978 21.7859C76.9118 21.7859 77.256 21.4398 77.2746 20.9948C77.2932 20.5398 76.9583 20.1542 76.5303 20.1344Z" fill="#8C4B00"/>
<path d="M66.6403 85.2846L44.1896 84.7753C43.1289 84.7506 43.1475 86.407 44.157 86.4268C49.0789 86.5405 66.8449 86.9361 66.6217 86.9361C67.045 86.9361 67.3939 86.5801 67.3985 86.1301C67.4078 85.6703 67.0682 85.2945 66.6403 85.2846Z" fill="#8C4B00"/>
<path d="M69.5152 78.1596L56.1407 77.6553C55.722 77.6849 55.3545 77.9965 55.3359 78.4514C55.3219 78.9063 55.6569 79.2919 56.0895 79.3068C56.2849 79.3167 69.2175 79.8062 69.4873 79.8161C69.906 79.8161 70.2503 79.465 70.2689 79.02C70.2828 78.5601 69.9479 78.1794 69.5152 78.1596Z" fill="#8C4B00"/>
<mask id="mask1_285_1161" style="mask-type:luminance" maskUnits="userSpaceOnUse" x="46" y="31" width="31" height="32">
<path d="M46.8872 31.6227H76.2627V62.8438H46.8872V31.6227Z" fill="white"/>
</mask>
<g mask="url(#mask1_285_1161)">
<path d="M76.2627 47.2332C76.2627 55.8548 69.6854 62.8438 61.574 62.8438C53.4626 62.8438 46.8872 55.8548 46.8872 47.2332C46.8872 38.6116 53.4626 31.6227 61.574 31.6227C69.6854 31.6227 76.2627 38.6116 76.2627 47.2332ZM71.4361 40.0261L68.3771 36.729L61.5964 43.9361L54.8157 36.729L51.7119 40.0261L58.4926 47.2332L51.7119 54.4404L54.8157 57.7374L61.5871 50.5204L68.3472 57.7077L71.4361 54.3987L64.6946 47.2094L71.4361 40.0261Z" fill="#8C4B00"/>
</g>
</svg>
