<svg width="84" height="84" viewBox="0 0 84 84" fill="none" xmlns="http://www.w3.org/2000/svg">
<mask id="mask0_103_1617" style="mask-type:luminance" maskUnits="userSpaceOnUse" x="0" y="0" width="84" height="84">
<path d="M0 0H84V83.2364H0V0Z" fill="white"/>
</mask>
<g mask="url(#mask0_103_1617)">
<path d="M82.4251 40.5602C82.2819 40.5602 82.1506 40.5841 82.0194 40.6398C81.8921 40.6915 81.7768 40.767 81.6773 40.8665C81.5779 40.9659 81.5023 41.0773 81.4506 41.2085C81.395 41.3358 81.3671 41.471 81.3671 41.6102C81.3711 44.3187 81.0967 47.0034 80.5438 49.6602C79.991 52.3131 79.1717 54.8824 78.0859 57.3682C77.0001 59.858 75.6717 62.2045 74.0967 64.4199C72.5256 66.6312 70.7398 68.6597 68.7472 70.5051V54.7153L79.1836 35.2864L80.8898 36.1932L75.1029 46.9636C75.0393 47.0869 74.9955 47.2182 74.9836 47.3574C74.9677 47.4966 74.9796 47.6318 75.0194 47.767C75.0631 47.8983 75.1268 48.0216 75.2143 48.129C75.3018 48.2364 75.4092 48.3239 75.5325 48.3915C75.6558 48.4551 75.791 48.4949 75.9302 48.5108C76.0694 48.5227 76.2046 48.5108 76.3398 48.467C76.4751 48.4273 76.5944 48.3636 76.7018 48.2722C76.8131 48.1847 76.8967 48.0773 76.9643 47.954L83.2444 36.2608C83.312 36.1375 83.3518 36.0063 83.3677 35.867C83.3796 35.7278 83.3677 35.5926 83.3239 35.4574C83.2842 35.3261 83.2205 35.2068 83.133 35.0955C83.0415 34.9881 82.9381 34.9045 82.8148 34.8369L80.1779 33.433L83.0415 28.1074C83.2722 27.6778 83.4114 27.2205 83.4592 26.7352C83.5069 26.25 83.4592 25.7727 83.316 25.3074C83.1768 24.842 82.9501 24.4205 82.6398 24.0426C82.3296 23.6648 81.9597 23.3625 81.5302 23.1318L78.6626 21.6006C78.229 21.3739 77.7717 21.2347 77.2825 21.1869C76.7972 21.1392 76.32 21.1869 75.8506 21.3261C75.3853 21.4693 74.9597 21.692 74.5819 22.0023C74.204 22.3085 73.8978 22.6784 73.6671 23.108L70.3103 29.3602L68.7472 32.2676V12.7193C70.712 14.5409 72.4779 16.5415 74.037 18.721C74.1165 18.8364 74.22 18.9278 74.3353 18.9994C74.4546 19.075 74.5819 19.1227 74.7211 19.1466C74.8563 19.1665 74.9955 19.1625 75.1308 19.1307C75.266 19.0989 75.3893 19.0432 75.5046 18.9636C75.616 18.8841 75.7114 18.7847 75.787 18.6653C75.8586 18.55 75.9063 18.4227 75.9302 18.2835C75.954 18.1483 75.9501 18.0131 75.9222 17.8778C75.8904 17.7426 75.8347 17.6153 75.7552 17.504C73.7347 14.6841 71.4001 12.1506 68.7472 9.90739V9.46193H82.4251C82.5643 9.46193 82.6995 9.43409 82.8268 9.38239C82.958 9.32671 83.0694 9.25114 83.1688 9.15568C83.2682 9.05625 83.3438 8.94091 83.3995 8.81364C83.4512 8.68636 83.479 8.55114 83.479 8.41193C83.479 7.85909 83.4234 7.3142 83.316 6.77727C83.2046 6.23636 83.0455 5.71136 82.8347 5.20227C82.6239 4.69318 82.3614 4.21193 82.0552 3.75455C81.7489 3.29716 81.3989 2.87159 81.0092 2.48182C80.6194 2.09205 80.1938 1.74602 79.7325 1.43977C79.2751 1.13352 78.7898 0.875002 78.2768 0.664206C77.7677 0.45341 77.2427 0.29432 76.7018 0.186933C76.1569 0.0755703 75.612 0.0238647 75.0592 0.0238647H23.1478C22.595 0.0238647 22.0461 0.0755703 21.5052 0.186933C20.9643 0.29432 20.4353 0.45341 19.9262 0.664206C19.4171 0.875002 18.9319 1.13352 18.4705 1.43977C18.0131 1.74602 17.5876 2.09205 17.1938 2.48182C16.804 2.87159 16.454 3.29318 16.1478 3.75455C15.8415 4.21193 15.583 4.69318 15.3683 5.20227C15.1575 5.71136 14.9984 6.23636 14.891 6.77727C14.7796 7.3142 14.7279 7.85909 14.7279 8.41193V9.90739C14.1512 10.3926 13.5904 10.8938 13.0415 11.4108C12.4927 11.9278 11.9597 12.4568 11.4427 13.0017C10.9217 13.5466 10.4205 14.1074 9.93132 14.6801C9.44212 15.2528 8.96882 15.8375 8.51541 16.4341C8.05803 17.0307 7.61655 17.6432 7.19496 18.2636C6.76939 18.8841 6.36371 19.5165 5.97393 20.1608C5.58814 20.8051 5.21428 21.4574 4.8603 22.1216C4.50632 22.7858 4.17223 23.458 3.85803 24.142C3.53984 24.8222 3.24155 25.5142 2.96314 26.2102C2.68473 26.9102 2.42223 27.6142 2.18359 28.3261C1.94098 29.0381 1.71825 29.754 1.51939 30.4778C1.31655 31.2017 1.13359 31.9335 0.970526 32.6653C0.807458 33.4011 0.668252 34.1369 0.544957 34.8767C0.421662 35.6205 0.322231 36.3642 0.238707 37.1119C0.159162 37.8597 0.0955251 38.6074 0.0557528 39.3551C0.0159796 40.1068 -0.00390625 40.8585 -0.00390625 41.6102C-0.00390625 42.3619 0.0159796 43.1097 0.0557528 43.8614C0.0955251 44.6131 0.159162 45.3608 0.238707 46.1085C0.322231 46.8523 0.421662 47.6 0.544957 48.3398C0.668252 49.0795 0.807458 49.8193 0.970526 50.5511C1.13359 51.2869 1.31655 52.0148 1.51939 52.7386C1.71825 53.4625 1.94098 54.1824 2.18359 54.8943C2.42223 55.6063 2.68473 56.3102 2.96314 57.0062C3.24155 57.7062 3.53984 58.3943 3.85803 59.0784C4.17223 59.7585 4.50632 60.4307 4.8603 61.0949C5.21428 61.7591 5.58814 62.4114 5.97393 63.0557C6.36371 63.7 6.76939 64.3324 7.19496 64.9528C7.61655 65.5773 8.05803 66.1858 8.51541 66.7824C8.96882 67.383 9.44212 67.9676 9.93132 68.5403C10.4205 69.1131 10.9217 69.6699 11.4427 70.2148C11.9597 70.7597 12.4927 71.2926 13.0415 71.8097C13.5904 72.3227 14.1512 72.8278 14.7279 73.3131V73.7545H1.05007C0.910866 73.7545 0.775639 73.7824 0.644389 73.8381C0.517116 73.8898 0.401775 73.9653 0.302344 74.0648C0.202912 74.1642 0.127343 74.2756 0.0756392 74.4068C0.0199569 74.5341 -0.00390625 74.6693 -0.00390625 74.8085C-0.00390625 75.3574 0.0517753 75.9023 0.159162 76.4432C0.266549 76.9841 0.425639 77.5091 0.636435 78.0142C0.851208 78.5233 1.10973 79.0085 1.41598 79.4659C1.72223 79.9233 2.07223 80.3449 2.462 80.7347C2.85575 81.1244 3.28132 81.4744 3.73871 81.7807C4.20007 82.0869 4.6853 82.3455 5.19439 82.5563C5.70348 82.767 6.23246 82.9261 6.77337 83.0335C7.31428 83.1409 7.86314 83.1966 8.41598 83.1966H60.3273C60.8802 83.1966 61.4251 83.1409 61.966 83.0335C62.5109 82.9261 63.0359 82.767 63.545 82.5563C64.058 82.3455 64.5433 82.0869 65.0006 81.7807C65.462 81.4744 65.8876 81.1244 66.2773 80.7347C66.6671 80.3489 67.0171 79.9233 67.3234 79.4659C67.6296 79.0085 67.8921 78.5233 68.1029 78.0142C68.3137 77.5091 68.4728 76.9841 68.5842 76.4432C68.6915 75.9023 68.7472 75.3574 68.7472 74.8085V73.3131C71.058 71.3642 73.1302 69.1886 74.9637 66.7864C76.8012 64.3881 78.3523 61.8187 79.6251 59.0824C80.8978 56.342 81.8603 53.5023 82.5086 50.5551C83.1569 47.608 83.483 44.625 83.479 41.6102C83.479 41.471 83.4512 41.3358 83.3955 41.2085C83.3438 41.0773 83.2682 40.9659 83.1688 40.8665C83.0694 40.767 82.954 40.6915 82.8268 40.6398C82.6995 40.5841 82.5643 40.5602 82.4251 40.5602ZM63.0796 60.8125L57.8177 63.8352L57.4239 57.7938L71.6705 31.2773L77.3262 34.292L63.0796 60.8125ZM75.5245 24.0983C75.6239 23.9153 75.7552 23.7563 75.9183 23.625C76.0813 23.4938 76.2603 23.3983 76.4631 23.3347C76.662 23.275 76.8688 23.2551 77.0756 23.275C77.2864 23.2949 77.4813 23.3545 77.6683 23.454L80.5319 24.9813C80.7188 25.0807 80.8779 25.2119 81.0092 25.375C81.1444 25.5341 81.2398 25.717 81.2995 25.9159C81.3592 26.1148 81.379 26.3176 81.3592 26.5284C81.3393 26.7352 81.2796 26.9301 81.1802 27.117L78.3205 32.4426L76.6938 31.5716L72.6648 29.4239L75.5245 24.0983ZM81.2796 7.36193H68.8347C68.958 6.63011 69.2046 5.93807 69.5745 5.29375C69.9444 4.64943 70.4137 4.08864 70.9825 3.60739C71.5552 3.13011 72.1876 2.76023 72.8876 2.50568C73.5876 2.25114 74.3114 2.12386 75.0592 2.12386C75.8029 2.12386 76.5268 2.25114 77.2268 2.50568C77.9268 2.76023 78.5631 3.13011 79.1319 3.60739C79.7006 4.08864 80.17 4.64943 80.5398 5.29375C80.9097 5.93807 81.1563 6.63011 81.2796 7.36193ZM2.10405 41.6102C2.10007 38.8977 2.3745 36.2131 2.92734 33.5602C3.48018 30.9034 4.2995 28.3341 5.3853 25.8483C6.47507 23.3625 7.80348 21.0119 9.3745 18.8006C10.9495 16.5892 12.7313 14.5568 14.7279 12.7114V70.5051C12.7313 68.6597 10.9495 66.6312 9.3745 64.4159C7.80348 62.2045 6.47109 59.858 5.3853 57.3682C4.2995 54.8824 3.48018 52.3131 2.92734 49.6602C2.3745 47.0034 2.10007 44.3187 2.10405 41.6102ZM8.41598 81.0966C7.66825 81.0926 6.94837 80.9653 6.24837 80.7108C5.54837 80.4563 4.912 80.0864 4.34325 79.6091C3.7745 79.1278 3.30518 78.567 2.9353 77.9227C2.56541 77.2784 2.31882 76.5903 2.19155 75.8585H51.9711C52.0984 76.8688 52.4046 77.8273 52.8859 78.7301C53.3631 79.6329 53.9876 80.4205 54.7592 81.0966H8.41598ZM60.3273 81.0966C59.9097 81.0966 59.5001 81.0528 59.0944 80.9733C58.6887 80.8938 58.295 80.7744 57.9131 80.6153C57.5273 80.4563 57.1654 80.2614 56.8194 80.0347C56.4773 79.804 56.1592 79.5415 55.8648 79.2511C55.5705 78.9608 55.312 78.6426 55.0813 78.3006C54.8506 77.9545 54.6558 77.5926 54.4967 77.2108C54.3376 76.833 54.2183 76.4392 54.1387 76.0335C54.0552 75.6278 54.0154 75.2182 54.0154 74.8085C54.0154 74.6693 53.9876 74.5341 53.9359 74.4068C53.8802 74.2756 53.8046 74.1642 53.7052 74.0648C53.6058 73.9653 53.4944 73.8898 53.3631 73.8381C53.2359 73.7824 53.1006 73.7585 52.9614 73.7585H16.8359V73.2773C16.9393 73.0187 16.9393 72.7602 16.8359 72.5017V8.41193C16.8359 7.9983 16.8756 7.58864 16.9592 7.18693C17.0387 6.78125 17.158 6.3875 17.3171 6.00568C17.4762 5.62386 17.6711 5.26193 17.9018 4.91989C18.1325 4.57784 18.391 4.25966 18.6853 3.96534C18.9796 3.675 19.2978 3.41648 19.6438 3.1858C19.9859 2.95511 20.3478 2.76023 20.7336 2.60511C21.1154 2.44602 21.5092 2.32671 21.9148 2.24716C22.3205 2.16364 22.7342 2.12386 23.1478 2.12386H69.491C68.5842 2.91932 67.8842 3.86193 67.383 4.95966C66.8859 6.05739 66.6393 7.20682 66.6393 8.41193V10.3847C66.6393 10.3886 66.6393 10.3886 66.6393 10.3926V36.1733C66.6393 36.1813 66.6393 36.1852 66.6393 36.1932L55.4234 57.0699C55.3279 57.2449 55.2881 57.4318 55.3001 57.6347L55.7495 64.5392H37.3427C37.2035 64.5392 37.0683 64.5631 36.937 64.6188C36.8097 64.6705 36.6944 64.746 36.595 64.8455C36.4955 64.9449 36.42 65.0563 36.3683 65.1875C36.3126 65.3148 36.2887 65.45 36.2887 65.5892C36.2887 65.7284 36.3126 65.8597 36.3683 65.9909C36.42 66.1182 36.4955 66.2335 36.595 66.333C36.6944 66.4284 36.8097 66.504 36.937 66.5597C37.0683 66.6114 37.2035 66.6392 37.3427 66.6392H56.8751C56.9188 66.6392 56.9626 66.6352 57.0023 66.6312C57.0143 66.6312 57.0222 66.6273 57.0342 66.6273C57.066 66.6193 57.0978 66.6153 57.1296 66.6074C57.1415 66.6034 57.1495 66.6034 57.1614 66.5994C57.1972 66.5875 57.237 66.5756 57.2728 66.5597H57.2808C57.3205 66.5438 57.3563 66.5239 57.3961 66.504C57.4001 66.5 57.4001 66.5 57.404 66.5L64.3961 62.483C64.5671 62.3835 64.7023 62.2443 64.7978 62.0653L66.6353 58.6409V74.8085C66.6353 75.2182 66.5955 75.6278 66.516 76.0335C66.4325 76.4392 66.3131 76.833 66.154 77.2108C65.995 77.5926 65.8001 77.9545 65.5694 78.3006C65.3427 78.6426 65.0802 78.9608 64.7859 79.2511C64.4915 79.5415 64.1734 79.804 63.8313 80.0347C63.4853 80.2614 63.1234 80.4563 62.7415 80.6153C62.3558 80.7744 61.962 80.8938 61.5563 80.9733C61.1506 81.0528 60.741 81.0966 60.3273 81.0966Z" fill="#E23636"/>
</g>
<path d="M26.4495 61.3853H53.0694C53.2086 61.3853 53.3438 61.3614 53.4751 61.3057C53.6023 61.254 53.7177 61.1785 53.8171 61.079C53.9165 60.9796 53.9921 60.8682 54.0438 60.737C54.0995 60.6097 54.1234 60.4745 54.1234 60.3353C54.1234 60.1961 54.0995 60.0608 54.0438 59.9336C53.9921 59.8063 53.9165 59.691 53.8171 59.5915C53.7177 59.4961 53.6023 59.4165 53.4751 59.3648C53.3438 59.3131 53.2086 59.2853 53.0694 59.2853H26.4495C26.3103 59.2853 26.1751 59.3131 26.0478 59.3648C25.9165 59.4165 25.8012 59.4961 25.7057 59.5915C25.6063 59.691 25.5307 59.8063 25.4751 59.9336C25.4233 60.0608 25.3955 60.1961 25.3955 60.3353C25.3955 60.4745 25.4233 60.6097 25.4751 60.737C25.5307 60.8682 25.6063 60.9796 25.7057 61.079C25.8012 61.1785 25.9165 61.254 26.0478 61.3057C26.1751 61.3614 26.3103 61.3853 26.4495 61.3853Z" fill="#E23636"/>
<path d="M32.8608 64.5392H26.4495C26.3103 64.5392 26.1751 64.563 26.0478 64.6187C25.9165 64.6704 25.8012 64.746 25.7057 64.8454C25.6063 64.9449 25.5307 65.0562 25.4751 65.1875C25.4233 65.3148 25.3955 65.45 25.3955 65.5892C25.3955 65.7284 25.4233 65.8596 25.4751 65.9909C25.5307 66.1182 25.6063 66.2335 25.7057 66.3329C25.8012 66.4284 25.9165 66.504 26.0478 66.5596C26.1751 66.6113 26.3103 66.6392 26.4495 66.6392H32.8608C33.0001 66.6392 33.1353 66.6113 33.2665 66.5596C33.3938 66.504 33.5091 66.4284 33.6086 66.3329C33.704 66.2335 33.7836 66.1182 33.8353 65.9909C33.887 65.8596 33.9148 65.7284 33.9148 65.5892C33.9148 65.45 33.887 65.3148 33.8353 65.1875C33.7836 65.0562 33.704 64.9449 33.6086 64.8454C33.5091 64.746 33.3938 64.6704 33.2665 64.6187C33.1353 64.563 33.0001 64.5392 32.8608 64.5392Z" fill="#E23636"/>
<path d="M31.4876 54.0314C31.3484 54.0314 31.2131 54.0592 31.0819 54.1109C30.9546 54.1666 30.8393 54.2422 30.7398 54.3416C30.6404 54.4371 30.5648 54.5524 30.5131 54.6797C30.4575 54.8109 30.4336 54.9422 30.4336 55.0814C30.4336 55.2206 30.4575 55.3558 30.5131 55.4871C30.5648 55.6143 30.6404 55.7257 30.7398 55.8251C30.8393 55.9246 30.9546 56.0001 31.0819 56.0518C31.2131 56.1075 31.3484 56.1353 31.4876 56.1353H51.9864C52.1256 56.1353 52.2609 56.1075 52.3881 56.0518C52.5194 56.0001 52.6308 55.9246 52.7302 55.8251C52.8296 55.7257 52.9052 55.6143 52.9609 55.4871C53.0126 55.3558 53.0404 55.2206 53.0404 55.0814C53.0404 54.9422 53.0126 54.8109 52.9609 54.6797C52.9052 54.5524 52.8296 54.4371 52.7302 54.3416C52.6308 54.2422 52.5194 54.1666 52.3881 54.1109C52.2609 54.0592 52.1256 54.0314 51.9864 54.0314H31.4876Z" fill="#E23636"/>
<path d="M41.4386 37.9671C39.2153 37.9671 37.9505 37.5017 35.9579 36.4597C34.7766 35.8352 33.9494 35.4972 32.967 35.4972C31.9965 35.4693 31.1732 35.7995 30.4971 36.4875C29.7533 37.2551 29.3715 38.1739 29.3477 39.2398C29.3477 41.8012 31.2806 42.9267 33.0783 43.7739C34.7011 44.5892 36.4113 45.1023 38.213 45.321V46.0887C38.213 47.3097 38.2607 47.9659 38.6783 48.7335C39.2511 49.7756 40.3727 50.4 41.6812 50.4C42.9857 50.4 44.1073 49.7756 44.684 48.7256C45.0977 47.9659 45.1454 47.3097 45.1454 46.0887V45.0943C50.7096 43.9131 54.1221 40.079 54.1221 34.9205C54.1221 31.7227 53.1914 29.233 51.3579 27.5227C49.8386 26.087 47.8022 25.2477 44.7477 24.8023L41.0647 24.2733C39.7641 24.0784 39.1795 23.7563 38.6982 23.3267C38.3085 22.9608 38.1335 22.4597 38.1335 21.7C38.1335 20.0097 39.5852 18.9597 41.9238 18.9597C43.5227 18.9318 45.0181 19.3057 46.4141 20.0773C47.492 20.6301 48.4028 20.9006 49.1982 20.9006C49.7033 20.9046 50.1886 20.8051 50.6499 20.5943C51.1073 20.3835 51.5011 20.0852 51.8312 19.7034C51.8391 19.6915 51.8471 19.6835 51.855 19.6716C52.4636 18.9279 52.7778 18.0767 52.7977 17.1182C52.7977 15.4835 51.6522 14.0199 49.6596 13.1012C48.2238 12.4171 46.7164 11.9517 45.1454 11.7012C45.1414 10.5318 45.0937 9.8915 44.692 9.11991C44.692 9.11195 44.688 9.10797 44.684 9.10002C44.1073 8.054 42.9857 7.42957 41.6772 7.42957C40.3727 7.42957 39.2511 8.054 38.6744 9.10002C38.6704 9.10797 38.6704 9.11195 38.6664 9.11991C38.2607 9.89945 38.213 10.5477 38.213 11.7409V11.9318C33.1698 13.1926 30.0755 17.0029 30.0755 22.054C30.0755 24.9773 30.9425 27.3 32.6528 28.9546C34.2556 30.5017 36.3795 31.4284 39.3346 31.862L43.0931 32.4108C44.5766 32.6335 45.0658 32.9398 45.3482 33.2063C45.8653 33.7074 45.9766 34.4989 45.9766 35.0756C45.9766 37.4659 43.5067 37.9671 41.4386 37.9671ZM46.8119 31.6949C46.0681 30.987 45.0499 30.5773 43.4033 30.3347L39.6448 29.7818C37.1471 29.4159 35.3931 28.6722 34.1204 27.4472C32.8198 26.1864 32.1874 24.4205 32.1874 22.054C32.1874 17.7307 34.9039 14.6523 39.4619 13.8091C39.7124 13.7614 39.9153 13.6421 40.0783 13.4472C40.2414 13.2523 40.3249 13.0296 40.3249 12.775V11.7409C40.3249 10.6631 40.3687 10.4125 40.5317 10.0983C40.7346 9.73638 41.1522 9.52957 41.6772 9.52957C42.2062 9.52957 42.6238 9.73638 42.8266 10.0983C42.9897 10.4125 43.0335 10.6631 43.0335 11.7409V12.6199C43.0335 12.8904 43.1249 13.125 43.3079 13.3239C43.4869 13.5267 43.7136 13.6381 43.984 13.6659C45.6585 13.833 47.2573 14.2824 48.7766 15.0063C49.3533 15.2727 50.6857 16.0085 50.6857 17.1182C50.6658 17.5716 50.5147 17.9813 50.2244 18.3352C49.9579 18.6534 49.6158 18.8085 49.1982 18.7966C48.892 18.7966 48.3272 18.6972 47.3886 18.212C45.6863 17.2813 43.8647 16.8318 41.9238 16.8597C37.8471 16.8597 36.0255 19.2898 36.0255 21.7C36.0255 23.0563 36.4312 24.0904 37.2664 24.8659L37.2823 24.8818C38.1692 25.6773 39.2073 26.1188 40.7545 26.3495L44.4454 26.8784C47.0386 27.2563 48.7249 27.9245 49.9102 29.046L49.9141 29.054C51.3062 30.3506 52.0141 32.3233 52.0141 34.9165C52.0141 39.3034 48.9914 42.3898 43.9283 43.1773C43.6698 43.2171 43.459 43.3364 43.288 43.5313C43.121 43.7301 43.0335 43.9568 43.0335 44.2154V46.0887C43.0335 47.1824 42.9897 47.433 42.8346 47.7193C42.6317 48.0892 42.2102 48.3 41.6772 48.3C41.1482 48.3 40.7266 48.0892 40.5278 47.7233C40.3687 47.433 40.321 47.1824 40.321 46.0887V44.3705C40.321 44.096 40.2295 43.8574 40.0425 43.6585C39.8556 43.4557 39.6249 43.3443 39.3505 43.3245C37.4653 43.2091 35.6795 42.7279 33.9931 41.8767C31.8335 40.8625 31.4556 40.2182 31.4556 39.2358C31.4755 38.7506 31.6545 38.329 31.9846 37.975C32.255 37.7006 32.5812 37.5733 32.967 37.6012C33.3965 37.6012 33.8221 37.7085 34.9755 38.3171C37.1948 39.4784 38.8016 40.0671 41.4346 40.0671C45.5988 40.0671 48.0846 38.2017 48.0846 35.0716C48.0846 33.6637 47.6471 32.4983 46.8119 31.6949Z" fill="#E23636"/>
</svg>
