<svg width="61" height="60" viewBox="0 0 61 60" fill="none" xmlns="http://www.w3.org/2000/svg">
<mask id="mask0_103_1634" style="mask-type:luminance" maskUnits="userSpaceOnUse" x="0" y="0" width="61" height="60">
<path d="M0 0H60.5504V59.9999H0V0Z" fill="white"/>
</mask>
<g mask="url(#mask0_103_1634)">
<path d="M59.416 29.2372C59.3128 29.2372 59.2182 29.2545 59.1236 29.2946C59.0318 29.3319 58.9487 29.3863 58.877 29.458C58.8053 29.5297 58.7509 29.61 58.7136 29.7046C58.6735 29.7963 58.6534 29.8938 58.6534 29.9941C58.6562 31.9465 58.4584 33.8817 58.0599 35.7969C57.6614 37.7091 57.0708 39.5612 56.2881 41.3531C55.5055 43.1478 54.5479 44.8393 53.4126 46.4362C52.2801 48.0302 50.9928 49.4924 49.5565 50.8227V39.4408L57.0794 25.4356L58.3093 26.0893L54.1379 33.8531C54.092 33.9419 54.0605 34.0366 54.0519 34.1369C54.0404 34.2372 54.049 34.3347 54.0777 34.4322C54.1092 34.5268 54.1551 34.6157 54.2182 34.6931C54.2813 34.7705 54.3587 34.8336 54.4475 34.8823C54.5364 34.9282 54.6339 34.9569 54.7342 34.9683C54.8346 34.9769 54.9321 34.9683 55.0295 34.9368C55.127 34.9081 55.213 34.8622 55.2904 34.7963C55.3707 34.7332 55.4309 34.6558 55.4796 34.5669L60.0066 26.1381C60.0553 26.0492 60.084 25.9546 60.0955 25.8542C60.1041 25.7539 60.0955 25.6564 60.0639 25.5589C60.0353 25.4643 59.9894 25.3783 59.9263 25.298C59.8604 25.2206 59.7858 25.1604 59.697 25.1117L57.7962 24.0996L59.8604 20.2608C60.0267 19.9511 60.127 19.6214 60.1614 19.2717C60.1958 18.9219 60.1614 18.5779 60.0582 18.2424C59.9579 17.907 59.7944 17.6031 59.5708 17.3307C59.3472 17.0584 59.0806 16.8405 58.7709 16.6742L56.7038 15.5704C56.3913 15.407 56.0616 15.3066 55.709 15.2722C55.3592 15.2378 55.0152 15.2722 54.6769 15.3726C54.3415 15.4758 54.0347 15.6363 53.7623 15.86C53.49 16.0807 53.2692 16.3474 53.1029 16.657L50.6832 21.1639L49.5565 23.2596V9.16846C50.9728 10.4815 52.2457 11.9236 53.3696 13.4947C53.4269 13.5779 53.5014 13.6438 53.5846 13.6954C53.6706 13.7499 53.7623 13.7843 53.8627 13.8015C53.9602 13.8158 54.0605 13.813 54.158 13.79C54.2555 13.7671 54.3443 13.7269 54.4275 13.6696C54.5077 13.6123 54.5766 13.5406 54.631 13.4546C54.6826 13.3714 54.717 13.2797 54.7342 13.1793C54.7514 13.0819 54.7486 12.9844 54.7285 12.8869C54.7056 12.7894 54.6654 12.6977 54.6081 12.6174C53.1517 10.5847 51.4688 8.75848 49.5565 7.14151V6.82041H59.416C59.5163 6.82041 59.6138 6.80034 59.7056 6.76307C59.8002 6.72293 59.8804 6.66846 59.9521 6.59965C60.0238 6.52798 60.0783 6.44484 60.1184 6.35309C60.1557 6.26135 60.1757 6.16387 60.1757 6.06353C60.1757 5.66502 60.1356 5.27225 60.0582 4.88521C59.9779 4.4953 59.8632 4.11686 59.7113 3.74989C59.5593 3.38291 59.3701 3.03601 59.1494 2.70631C58.9286 2.37661 58.6763 2.06984 58.3954 1.78888C58.1144 1.50791 57.8076 1.25849 57.4751 1.03773C57.1454 0.816975 56.7956 0.630622 56.4257 0.478672C56.0588 0.326723 55.6803 0.212044 55.2904 0.134636C54.8977 0.0543612 54.5049 0.0170898 54.1064 0.0170898H16.6867C16.2882 0.0170898 15.8925 0.0543612 15.5026 0.134636C15.1127 0.212044 14.7314 0.326723 14.3644 0.478672C13.9975 0.630622 13.6477 0.816975 13.3151 1.03773C12.9854 1.25849 12.6787 1.50791 12.3948 1.78888C12.1139 2.06984 11.8616 2.37374 11.6408 2.70631C11.4201 3.03601 11.2337 3.38291 11.0789 3.74989C10.9269 4.11686 10.8123 4.4953 10.7348 4.88521C10.6546 5.27225 10.6173 5.66502 10.6173 6.06353V7.14151C10.2016 7.49128 9.79735 7.85252 9.40171 8.22523C9.00607 8.59793 8.62189 8.97924 8.24919 9.37201C7.87361 9.76479 7.51237 10.169 7.15974 10.5819C6.8071 10.9947 6.46593 11.4162 6.1391 11.8462C5.8094 12.2763 5.49116 12.7178 5.18726 13.165C4.8805 13.6123 4.58807 14.0681 4.3071 14.5326C4.02901 14.997 3.75951 15.4672 3.50435 15.946C3.24919 16.4248 3.00837 16.9093 2.78187 17.4024C2.55252 17.8926 2.33749 18.3915 2.13681 18.8932C1.93612 19.3978 1.7469 19.9053 1.57488 20.4184C1.4 20.9316 1.23944 21.4477 1.0961 21.9695C0.949881 22.4913 0.818 23.0188 0.700454 23.5463C0.582909 24.0767 0.482564 24.6071 0.393689 25.1403C0.304812 25.6765 0.233139 26.2126 0.172932 26.7516C0.115593 27.2906 0.0697208 27.8296 0.0410514 28.3686C0.0123814 28.9104 -0.00195312 29.4523 -0.00195312 29.9941C-0.00195312 30.536 0.0123814 31.075 0.0410514 31.6168C0.0697208 32.1587 0.115593 32.6977 0.172932 33.2367C0.233139 33.7728 0.304812 34.3118 0.393689 34.845C0.482564 35.3783 0.582909 35.9116 0.700454 36.4391C0.818 36.9695 0.949881 37.4941 1.0961 38.0159C1.23944 38.5377 1.4 39.0566 1.57488 39.5698C1.7469 40.083 1.93612 40.5905 2.13681 41.0922C2.33749 41.5968 2.55252 42.0927 2.78187 42.5859C3.00837 43.0761 3.24919 43.5606 3.50435 44.0394C3.75951 44.5182 4.02901 44.9884 4.3071 45.4528C4.58807 45.9173 4.8805 46.3731 5.18726 46.8204C5.49116 47.2705 5.8094 47.7091 6.1391 48.1392C6.46593 48.5721 6.8071 48.9935 7.15974 49.4064C7.51237 49.8192 7.87361 50.2206 8.24919 50.6134C8.62189 51.0062 9.00607 51.3903 9.40171 51.763C9.79735 52.1329 10.2016 52.497 10.6173 52.8467V53.165H0.757794C0.65745 53.165 0.559973 53.1851 0.465363 53.2252C0.37362 53.2625 0.290478 53.3169 0.218804 53.3886C0.147129 53.4603 0.0926567 53.5406 0.0553863 53.6352C0.0152483 53.7269 -0.00195312 53.8244 -0.00195312 53.9247C-0.00195312 54.3204 0.0381843 54.7131 0.115593 55.1031C0.193001 55.493 0.30768 55.8714 0.459629 56.2355C0.614446 56.6025 0.800799 56.9523 1.02156 57.282C1.24231 57.6117 1.49461 57.9156 1.77557 58.1965C2.0594 58.4775 2.36616 58.7298 2.69587 58.9505C3.02843 59.1713 3.3782 59.3576 3.74518 59.5096C4.11215 59.6615 4.49346 59.7762 4.88336 59.8536C5.27327 59.931 5.66891 59.9712 6.06742 59.9712H43.4871C43.8856 59.9712 44.2784 59.931 44.6683 59.8536C45.0611 59.7762 45.4395 59.6615 45.8065 59.5096C46.1763 59.3576 46.5261 59.1713 46.8558 58.9505C47.1884 58.7298 47.4951 58.4775 47.7761 58.1965C48.0571 57.9184 48.3094 57.6117 48.5301 57.282C48.7509 56.9523 48.9401 56.6025 49.092 56.2355C49.244 55.8714 49.3587 55.493 49.4389 55.1031C49.5163 54.7131 49.5565 54.3204 49.5565 53.9247V52.8467C51.2222 51.4419 52.7159 49.8737 54.0376 48.1421C55.3621 46.4133 56.4802 44.5612 57.3977 42.5887C58.3151 40.6134 59.0089 38.5664 59.4762 36.4419C59.9435 34.3175 60.1786 32.1673 60.1757 29.9941C60.1757 29.8938 60.1557 29.7963 60.1155 29.7046C60.0783 29.61 60.0238 29.5297 59.9521 29.458C59.8804 29.3863 59.7973 29.3319 59.7056 29.2946C59.6138 29.2545 59.5163 29.2372 59.416 29.2372ZM45.4711 43.8359L41.6781 46.0148L41.3942 41.6598L51.6637 22.5457L55.7405 24.7189L45.4711 43.8359ZM54.4418 17.3709C54.5135 17.239 54.6081 17.1243 54.7256 17.0297C54.8432 16.9351 54.9722 16.8663 55.1184 16.8204C55.2618 16.7774 55.4108 16.7631 55.5599 16.7774C55.7119 16.7917 55.8524 16.8347 55.9871 16.9064L58.0513 18.0073C58.1861 18.079 58.3007 18.1736 58.3954 18.2912C58.4928 18.4058 58.5616 18.5377 58.6046 18.6811C58.6476 18.8244 58.662 18.9706 58.6477 19.1226C58.6333 19.2717 58.5903 19.4121 58.5186 19.5469L56.4573 23.3858L55.2847 22.7579L52.3805 21.2097L54.4418 17.3709ZM58.5903 5.30665H49.6196C49.7084 4.77913 49.8862 4.28027 50.1528 3.81583C50.4194 3.35138 50.7577 2.94713 51.1677 2.60023C51.5806 2.25619 52.0364 1.98957 52.541 1.80608C53.0456 1.62259 53.5674 1.53085 54.1064 1.53085C54.6425 1.53085 55.1643 1.62259 55.6689 1.80608C56.1735 1.98957 56.6322 2.25619 57.0421 2.60023C57.4521 2.94713 57.7904 3.35138 58.0571 3.81583C58.3237 4.28027 58.5014 4.77913 58.5903 5.30665ZM1.51754 29.9941C1.51467 28.0389 1.71249 26.1037 2.111 24.1914C2.50951 22.2762 3.10011 20.4242 3.88279 18.6323C4.66834 16.8405 5.62591 15.1461 6.75836 13.5521C7.89368 11.958 9.17809 10.493 10.6173 9.16272V50.8227C9.17809 49.4924 7.89368 48.0302 6.75836 46.4333C5.62591 44.8393 4.66547 43.1478 3.88279 41.3531C3.10011 39.5612 2.50951 37.7091 2.111 35.7969C1.71249 33.8817 1.51467 31.9465 1.51754 29.9941ZM6.06742 58.4574C5.52843 58.4545 5.00951 58.3628 4.50492 58.1793C4.00034 57.9958 3.54162 57.7292 3.13164 57.3852C2.72167 57.0383 2.38337 56.634 2.11674 56.1696C1.85011 55.7051 1.67236 55.2091 1.58061 54.6816H37.4636C37.5554 55.4098 37.7761 56.1008 38.123 56.7516C38.467 57.4024 38.9172 57.97 39.4734 58.4574H6.06742ZM43.4871 58.4574C43.1861 58.4574 42.8908 58.4259 42.5984 58.3685C42.3059 58.3112 42.0221 58.2252 41.7469 58.1105C41.4688 57.9958 41.2079 57.8553 40.9584 57.6919C40.7119 57.5256 40.4825 57.3364 40.2704 57.1271C40.0582 56.9178 39.8719 56.6885 39.7056 56.4419C39.5393 56.1925 39.3988 55.9316 39.2841 55.6564C39.1695 55.384 39.0834 55.1002 39.0261 54.8078C38.9659 54.5153 38.9372 54.22 38.9372 53.9247C38.9372 53.8244 38.9172 53.7269 38.8799 53.6352C38.8398 53.5406 38.7853 53.4603 38.7136 53.3886C38.6419 53.3169 38.5617 53.2625 38.467 53.2252C38.3753 53.1851 38.2778 53.1679 38.1775 53.1679H12.1368V52.8209C12.2113 52.6346 12.2113 52.4482 12.1368 52.2619V6.06353C12.1368 5.76537 12.1655 5.47007 12.2257 5.1805C12.283 4.88807 12.369 4.60424 12.4837 4.32901C12.5984 4.05378 12.7389 3.79289 12.9051 3.54633C13.0714 3.29977 13.2578 3.07041 13.4699 2.85826C13.6821 2.64897 13.9115 2.46262 14.1609 2.29633C14.4074 2.13005 14.6683 1.98957 14.9464 1.87775C15.2217 1.76307 15.5055 1.67707 15.7979 1.61973C16.0903 1.55952 16.3885 1.53085 16.6867 1.53085H50.0926C49.4389 2.10424 48.9344 2.78372 48.5731 3.575C48.2147 4.36628 48.037 5.19484 48.037 6.06353V7.48555C48.037 7.48841 48.037 7.48841 48.037 7.49128V26.075C48.037 26.0807 48.037 26.0836 48.037 26.0893L39.9521 41.138C39.8833 41.2642 39.8547 41.3989 39.8633 41.5452L40.1872 46.5222H26.9189C26.8186 46.5222 26.7211 46.5394 26.6265 46.5796C26.5347 46.6168 26.4516 46.6713 26.3799 46.743C26.3082 46.8146 26.2538 46.8949 26.2165 46.9895C26.1763 47.0813 26.1591 47.1787 26.1591 47.2791C26.1591 47.3794 26.1763 47.474 26.2165 47.5687C26.2538 47.6604 26.3082 47.7435 26.3799 47.8152C26.4516 47.884 26.5347 47.9385 26.6265 47.9786C26.7211 48.0159 26.8186 48.036 26.9189 48.036H40.9986C41.0301 48.036 41.0617 48.0331 41.0903 48.0302C41.0989 48.0302 41.1047 48.0274 41.1133 48.0274C41.1362 48.0216 41.1591 48.0188 41.1821 48.013C41.1907 48.0102 41.1964 48.0102 41.205 48.0073C41.2308 47.9987 41.2595 47.9901 41.2853 47.9786H41.291C41.3197 47.9672 41.3455 47.9528 41.3742 47.9385C41.377 47.9356 41.377 47.9356 41.3799 47.9356L46.42 45.04C46.5433 44.9683 46.6408 44.868 46.7096 44.739L48.0341 42.2705V53.9247C48.0341 54.22 48.0055 54.5153 47.9481 54.8078C47.8879 55.1002 47.8019 55.384 47.6872 55.6564C47.5725 55.9316 47.4321 56.1925 47.2658 56.4419C47.1024 56.6885 46.9131 56.9178 46.701 57.1271C46.4888 57.3364 46.2595 57.5256 46.0129 57.6919C45.7635 57.8553 45.5026 57.9958 45.2274 58.1105C44.9493 58.2252 44.6654 58.3112 44.373 58.3685C44.0806 58.4259 43.7853 58.4574 43.4871 58.4574Z" fill="#006C80"/>
</g>
<path d="M19.0664 44.2489H38.255C38.3554 44.2489 38.4528 44.2317 38.5474 44.1915C38.6392 44.1543 38.7223 44.0998 38.794 44.0281C38.8657 43.9564 38.9202 43.8762 38.9574 43.7816C38.9976 43.6898 39.0148 43.5923 39.0148 43.492C39.0148 43.3916 38.9976 43.2942 38.9574 43.2024C38.9202 43.1107 38.8657 43.0275 38.794 42.9559C38.7223 42.8871 38.6392 42.8297 38.5474 42.7924C38.4528 42.7552 38.3554 42.7351 38.255 42.7351H19.0664C18.966 42.7351 18.8686 42.7552 18.7768 42.7924C18.6822 42.8297 18.5991 42.8871 18.5303 42.9559C18.4586 43.0275 18.4041 43.1107 18.364 43.2024C18.3267 43.2942 18.3066 43.3916 18.3066 43.492C18.3066 43.5923 18.3267 43.6898 18.364 43.7816C18.4041 43.8762 18.4586 43.9564 18.5303 44.0281C18.5991 44.0998 18.6822 44.1543 18.7768 44.1915C18.8686 44.2317 18.966 44.2489 19.0664 44.2489Z" fill="#006C80"/>
<path d="M23.6879 46.5222H19.0664C18.966 46.5222 18.8686 46.5394 18.7768 46.5796C18.6822 46.6168 18.5991 46.6713 18.5303 46.743C18.4586 46.8146 18.4041 46.8949 18.364 46.9895C18.3267 47.0813 18.3066 47.1788 18.3066 47.2791C18.3066 47.3794 18.3267 47.4741 18.364 47.5687C18.4041 47.6604 18.4586 47.7435 18.5303 47.8152C18.5991 47.884 18.6822 47.9385 18.7768 47.9786C18.8686 48.0159 18.966 48.036 19.0664 48.036H23.6879C23.7883 48.036 23.8858 48.0159 23.9804 47.9786C24.0721 47.9385 24.1553 47.884 24.2269 47.8152C24.2957 47.7435 24.3531 47.6604 24.3904 47.5687C24.4276 47.4741 24.4477 47.3794 24.4477 47.2791C24.4477 47.1788 24.4276 47.0813 24.3904 46.9895C24.3531 46.8949 24.2957 46.8146 24.2269 46.743C24.1553 46.6713 24.0721 46.6168 23.9804 46.5796C23.8858 46.5394 23.7883 46.5222 23.6879 46.5222Z" fill="#006C80"/>
<path d="M22.6972 38.9478C22.5969 38.9478 22.4994 38.9678 22.4048 39.0051C22.3131 39.0452 22.2299 39.0997 22.1583 39.1714C22.0866 39.2402 22.0321 39.3233 21.9948 39.4151C21.9547 39.5097 21.9375 39.6043 21.9375 39.7046C21.9375 39.805 21.9547 39.9025 21.9948 39.9971C22.0321 40.0888 22.0866 40.1691 22.1583 40.2408C22.2299 40.3124 22.3131 40.3669 22.4048 40.4042C22.4994 40.4443 22.5969 40.4644 22.6972 40.4644H37.4736C37.574 40.4644 37.6714 40.4443 37.7632 40.4042C37.8578 40.3669 37.9381 40.3124 38.0097 40.2408C38.0814 40.1691 38.1359 40.0888 38.176 39.9971C38.2133 39.9025 38.2334 39.805 38.2334 39.7046C38.2334 39.6043 38.2133 39.5097 38.176 39.4151C38.1359 39.3233 38.0814 39.2402 38.0097 39.1714C37.9381 39.0997 37.8578 39.0452 37.7632 39.0051C37.6714 38.9678 37.574 38.9478 37.4736 38.9478H22.6972Z" fill="#006C80"/>
<path d="M29.8709 27.3683C28.2682 27.3683 27.3565 27.0329 25.9202 26.2817C25.0687 25.8316 24.4724 25.5879 23.7642 25.5879C23.0647 25.5679 22.4712 25.8058 21.9838 26.3018C21.4477 26.8551 21.1725 27.5174 21.1553 28.2857C21.1553 30.1321 22.5486 30.9434 23.8445 31.5541C25.0142 32.1418 26.247 32.5117 27.5458 32.6693V33.2227C27.5458 34.1028 27.5802 34.5759 27.8812 35.1292C28.294 35.8803 29.1025 36.3305 30.0457 36.3305C30.9861 36.3305 31.7946 35.8803 32.2103 35.1235C32.5085 34.5759 32.5429 34.1028 32.5429 33.2227V32.5059C36.5538 31.6544 39.0136 28.8907 39.0136 25.1722C39.0136 22.8672 38.3428 21.0724 37.0211 19.8396C35.9259 18.8047 34.458 18.1997 32.2562 17.8786L29.6014 17.4973C28.6639 17.3568 28.2424 17.1246 27.8955 16.815C27.6146 16.5512 27.4884 16.19 27.4884 15.6424C27.4884 14.4239 28.5349 13.6671 30.2206 13.6671C31.3732 13.647 32.4511 13.9165 33.4574 14.4727C34.2344 14.8712 34.8909 15.0661 35.4643 15.0661C35.8284 15.069 36.1782 14.9973 36.5108 14.8454C36.8405 14.6934 37.1243 14.4784 37.3623 14.2032C37.368 14.1946 37.3737 14.1888 37.3795 14.1802C37.8181 13.6441 38.0446 13.0306 38.0589 12.3397C38.0589 11.1613 37.2332 10.1063 35.7969 9.44401C34.7619 8.95089 33.6753 8.61546 32.5429 8.43484C32.54 7.59195 32.5056 7.13037 32.216 6.57418C32.216 6.56844 32.2132 6.56557 32.2103 6.55984C31.7946 5.80583 30.9861 5.35571 30.0429 5.35571C29.1025 5.35571 28.294 5.80583 27.8783 6.55984C27.8755 6.56557 27.8755 6.56844 27.8726 6.57418C27.5802 7.1361 27.5458 7.60342 27.5458 8.46351V8.60112C23.9104 9.50995 21.6799 12.2565 21.6799 15.8976C21.6799 18.0048 22.3049 19.6791 23.5377 20.8718C24.6931 21.987 26.2241 22.655 28.3542 22.9675L31.0635 23.3632C32.1329 23.5237 32.4855 23.7445 32.6891 23.9365C33.0618 24.2978 33.1421 24.8683 33.1421 25.284C33.1421 27.0071 31.3617 27.3683 29.8709 27.3683ZM33.7441 22.8471C33.208 22.3368 32.4741 22.0415 31.2871 21.8666L28.5779 21.4681C26.7774 21.2043 25.5131 20.6682 24.5956 19.7852C23.6581 18.8763 23.2023 17.6034 23.2023 15.8976C23.2023 12.7812 25.1604 10.5621 28.446 9.95433C28.6266 9.91993 28.7728 9.83392 28.8904 9.69344C29.0079 9.55296 29.0681 9.39241 29.0681 9.20892V8.46351C29.0681 7.68656 29.0996 7.50594 29.2172 7.27945C29.3634 7.01856 29.6644 6.86947 30.0429 6.86947C30.4242 6.86947 30.7252 7.01856 30.8714 7.27945C30.989 7.50594 31.0205 7.68656 31.0205 8.46351V9.09711C31.0205 9.29206 31.0865 9.46121 31.2183 9.60456C31.3474 9.75078 31.5108 9.83105 31.7057 9.85112C32.9127 9.97153 34.0652 10.2955 35.1604 10.8173C35.5761 11.0094 36.5366 11.5398 36.5366 12.3397C36.5222 12.6665 36.4133 12.9618 36.204 13.2169C36.0119 13.4463 35.7654 13.5581 35.4643 13.5495C35.2436 13.5495 34.8365 13.4778 34.1599 13.1281C32.9328 12.4572 31.6197 12.1332 30.2206 12.1533C27.282 12.1533 25.9689 13.905 25.9689 15.6424C25.9689 16.62 26.2613 17.3655 26.8634 17.9245L26.8749 17.936C27.5142 18.5094 28.2625 18.8276 29.3777 18.9939L32.0383 19.3752C33.9076 19.6476 35.1232 20.1292 35.9775 20.9377L35.9804 20.9434C36.9838 21.8781 37.4941 23.3001 37.4941 25.1693C37.4941 28.3316 35.3152 30.5564 31.6656 31.124C31.4792 31.1527 31.3273 31.2387 31.204 31.3792C31.0836 31.5226 31.0205 31.686 31.0205 31.8723V33.2227C31.0205 34.0111 30.989 34.1917 30.8772 34.3981C30.731 34.6647 30.4271 34.8167 30.0429 34.8167C29.6616 34.8167 29.3577 34.6647 29.2143 34.401C29.0996 34.1917 29.0652 34.0111 29.0652 33.2227V31.9841C29.0652 31.7863 28.9993 31.6143 28.8646 31.4709C28.7298 31.3247 28.5635 31.2445 28.3657 31.2301C27.0068 31.147 25.7195 30.8001 24.5039 30.1865C22.9471 29.4555 22.6748 28.991 22.6748 28.2829C22.6891 27.9331 22.8181 27.6292 23.0561 27.374C23.251 27.1762 23.4861 27.0845 23.7642 27.1045C24.0738 27.1045 24.3806 27.182 25.212 27.6206C26.8118 28.4578 27.9701 28.8821 29.868 28.8821C32.8697 28.8821 34.6616 27.5375 34.6616 25.2812C34.6616 24.2662 34.3462 23.4262 33.7441 22.8471Z" fill="#006C80"/>
</svg>
