<svg width="60" height="52" viewBox="0 0 60 52" fill="none" xmlns="http://www.w3.org/2000/svg">
<path d="M32.2634 13.3686C32.2634 13.74 32.2459 14.1113 32.2092 14.4827C32.1725 14.8525 32.1184 15.2206 32.045 15.5856C31.9733 15.9506 31.8825 16.3124 31.7741 16.6678C31.6657 17.0248 31.5414 17.3739 31.398 17.7181C31.2561 18.0624 31.0967 18.3987 30.9214 18.727C30.7461 19.0553 30.5548 19.3741 30.3476 19.6849C30.1404 19.9941 29.9189 20.2921 29.683 20.5806C29.4471 20.8675 29.1969 21.1432 28.9339 21.4062C28.671 21.6708 28.3952 21.9194 28.1067 22.1569C27.8183 22.3928 27.5202 22.6143 27.211 22.8199C26.9002 23.0271 26.5815 23.2184 26.2531 23.3937C25.9248 23.569 25.5885 23.7284 25.2443 23.8718C24.9 24.0137 24.551 24.1396 24.1939 24.2464C23.8369 24.3547 23.4767 24.4456 23.1118 24.5189C22.7468 24.5906 22.3786 24.6448 22.0072 24.6815C21.6375 24.7181 21.2661 24.7373 20.8932 24.7373C20.5202 24.7373 20.1489 24.7181 19.7791 24.6815C19.4077 24.6448 19.0396 24.5906 18.6746 24.5189C18.3096 24.4456 17.9494 24.3547 17.5924 24.2464C17.237 24.1396 16.8863 24.0137 16.5421 23.8718C16.1978 23.7284 15.8615 23.569 15.5332 23.3937C15.2049 23.2184 14.8861 23.0271 14.5769 22.8199C14.2661 22.6143 13.9681 22.3928 13.6796 22.1569C13.3927 21.9194 13.117 21.6708 12.8524 21.4062C12.5894 21.1432 12.3408 20.8675 12.1033 20.5806C11.8674 20.2921 11.6459 19.9941 11.4387 19.6849C11.2315 19.3741 11.0403 19.0553 10.8649 18.727C10.6896 18.3987 10.5302 18.0624 10.3884 17.7181C10.2465 17.3739 10.1206 17.0248 10.0122 16.6678C9.90387 16.3124 9.81462 15.9506 9.7413 15.5856C9.66799 15.2206 9.6138 14.8525 9.57714 14.4827C9.54048 14.1113 9.52295 13.74 9.52295 13.3686C9.52295 12.9957 9.54048 12.6243 9.57714 12.253C9.6138 11.8832 9.66799 11.515 9.7413 11.1501C9.81462 10.7851 9.90387 10.4249 10.0122 10.0679C10.1206 9.71084 10.2465 9.3618 10.3884 9.01754C10.5302 8.67327 10.6896 8.33698 10.8649 8.00866C11.0403 7.68033 11.2315 7.36157 11.4387 7.05237C11.6459 6.74317 11.8674 6.44354 12.1033 6.15665C12.3408 5.86817 12.5894 5.59244 12.8524 5.32946C13.117 5.06649 13.3927 4.81626 13.6796 4.58038C13.9681 4.34449 14.2661 4.12295 14.5769 3.91576C14.8861 3.70856 15.2049 3.51731 15.5332 3.34199C15.8615 3.16667 16.1978 3.00729 16.5421 2.86544C16.8863 2.72199 17.237 2.59768 17.5924 2.4893C17.9494 2.38092 18.3096 2.29007 18.6746 2.21835C19.0396 2.14504 19.4077 2.09085 19.7791 2.05419C20.1489 2.01753 20.5202 2 20.8932 2C21.2661 2 21.6375 2.01753 22.0072 2.05419C22.3786 2.09085 22.7468 2.14504 23.1118 2.21835C23.4767 2.29007 23.8369 2.38092 24.1939 2.4893C24.551 2.59768 24.9 2.72199 25.2443 2.86544C25.5885 3.00729 25.9248 3.16667 26.2531 3.34199C26.5815 3.51731 26.9002 3.70856 27.211 3.91576C27.5202 4.12295 27.8183 4.34449 28.1067 4.58038C28.3952 4.81626 28.671 5.06649 28.9339 5.32946C29.1969 5.59244 29.4471 5.86817 29.683 6.15665C29.9189 6.44354 30.1404 6.74317 30.3476 7.05237C30.5548 7.36157 30.7461 7.68033 30.9214 8.00866C31.0967 8.33698 31.2561 8.67327 31.398 9.01754C31.5414 9.3618 31.6657 9.71084 31.7741 10.0679C31.8825 10.4249 31.9733 10.7851 32.045 11.1501C32.1184 11.515 32.1725 11.8832 32.2092 12.253C32.2459 12.6243 32.2634 12.9957 32.2634 13.3686Z" stroke="#545454" stroke-width="3" stroke-linecap="round" stroke-linejoin="round"/>
<mask id="mask0_103_1239" style="mask-type:luminance" maskUnits="userSpaceOnUse" x="0" y="23" width="44" height="29">
<path d="M0 23.3268H43.5253V51.4798H0V23.3268Z" fill="white"/>
</mask>
<g mask="url(#mask0_103_1239)">
<path d="M21.6041 50.3163H3.8379C2.268 50.3163 0.981801 49.0413 1.12205 47.4777C1.33722 45.0934 1.82174 42.7521 2.56445 40.5271C3.59883 37.424 5.11773 34.6045 7.03189 32.2282C8.94446 29.8534 11.2172 27.9695 13.7179 26.6833C16.217 25.3987 18.8978 24.7373 21.6041 24.7373C24.3104 24.7373 26.9911 25.3987 29.4902 26.6833C31.9909 27.9695 34.2637 29.8534 36.1763 32.2282C38.0904 34.6045 39.6093 37.424 40.6437 40.5271C41.3864 42.7521 41.8709 45.0934 42.0861 47.4777C42.2263 49.0413 40.9401 50.3163 39.3702 50.3163H31.908" stroke="#545454" stroke-width="3" stroke-linecap="round" stroke-linejoin="round"/>
</g>
<mask id="mask1_103_1239" style="mask-type:luminance" maskUnits="userSpaceOnUse" x="35" y="0" width="25" height="29">
<path d="M35 0H60V28.0795H35V0Z" fill="white"/>
</mask>
<g mask="url(#mask1_103_1239)">
<path d="M38 29.0155H58" stroke="#545454" stroke-width="2" stroke-linecap="round"/>
<mask id="mask2_103_1239" style="mask-type:luminance" maskUnits="userSpaceOnUse" x="37" y="0" width="22" height="28">
<path d="M37 0.935974H58.7221V27.2233H37V0.935974Z" fill="white"/>
</mask>
<g mask="url(#mask2_103_1239)">
<path d="M52.7339 0.685883C53.0548 0.685883 53.369 0.873662 53.4927 1.16537H55.4839C56.2952 1.1654 57.026 1.44755 57.6099 1.88901L57.8511 2.08725L57.855 2.09116C58.4645 2.66465 58.8462 3.46117 58.8462 4.34311V4.71127L58.8589 4.70444V24.2953C58.8589 25.1795 58.4625 25.9735 57.8696 26.5443L57.8677 26.5472C57.2585 27.1202 56.4196 27.473 55.4976 27.473H40.1138C39.1894 27.473 38.3521 27.1068 37.7456 26.5492L37.7437 26.5472C37.1341 25.9737 36.7524 25.1772 36.7524 24.2953V4.34311C36.7524 3.45955 37.1346 2.67735 37.7407 2.09311L37.7437 2.09116C38.3529 1.51809 39.1917 1.16538 40.1138 1.16537H42.0952C42.2245 0.868428 42.5383 0.685883 42.8638 0.685883H52.7339ZM40.1138 2.65073C39.6117 2.65073 39.1391 2.84141 38.813 3.15952L38.8091 3.16245C38.494 3.45914 38.2857 3.89983 38.2856 4.3558V24.308C38.2856 24.7677 38.4831 25.2046 38.8062 25.4984L38.8091 25.5013C39.1399 25.8125 39.6034 26.014 40.1138 26.014H55.4976C56.0003 26.014 56.4711 25.8219 56.7817 25.5081L56.7905 25.4984H56.7915C57.1179 25.2015 57.3257 24.7632 57.3257 24.308V7.76205L57.313 7.76987V4.3558C57.313 3.89663 57.1149 3.4604 56.7808 3.1683L56.771 3.15952C56.4568 2.85259 55.9831 2.65076 55.4839 2.65073H53.4839C53.3568 2.94498 53.0555 3.14291 52.7339 3.14291H42.8638C42.5327 3.14291 42.2273 2.94648 42.0991 2.65073H40.1138Z" fill="#545454" stroke="#545454" stroke-width="0.5"/>
</g>
<path d="M41.4013 7.91631C41.2402 7.77755 41.2402 7.54998 41.4013 7.41121C41.5486 7.26042 41.7898 7.26042 41.938 7.41121L42.6348 8.06803L43.9899 5.87187C44.0837 5.70813 44.3249 5.6443 44.5127 5.74606C44.6866 5.83394 44.7539 6.06151 44.6471 6.2382L43.0776 8.81272C43.0509 8.8377 43.0371 8.87563 42.9975 8.9006C42.8493 9.03937 42.6081 9.03937 42.4609 8.9006L41.4013 7.90336V7.91631Z" fill="#545454"/>
<path d="M46.0553 7.89125C45.8398 7.89125 45.6797 7.73953 45.6797 7.53786C45.6797 7.33527 45.8398 7.18448 46.0553 7.18448H53.9542C54.1687 7.18448 54.3298 7.33527 54.3298 7.53786C54.3298 7.73953 54.1687 7.89125 53.9542 7.89125H46.0553Z" fill="#545454"/>
<path d="M41.4013 15.0584C41.2402 14.9196 41.2402 14.692 41.4013 14.5533C41.5486 14.4016 41.7898 14.4016 41.938 14.5533L42.6348 15.2092L43.9899 13.0139C44.0837 12.8493 44.3249 12.7863 44.5127 12.8872C44.6866 12.976 44.7539 13.2026 44.6471 13.3793L43.0776 15.9538C43.0509 15.9788 43.0371 16.0168 42.9975 16.0427C42.8493 16.1814 42.6081 16.1814 42.4609 16.0427L41.4013 15.0454V15.0584Z" fill="#545454"/>
<path d="M46.0553 15.0325C45.8398 15.0325 45.6797 14.8817 45.6797 14.6791C45.6797 14.4775 45.8398 14.3257 46.0553 14.3257H53.9542C54.1687 14.3257 54.3298 14.4775 54.3298 14.6791C54.3298 14.8817 54.1687 15.0325 53.9542 15.0325H46.0553Z" fill="#545454"/>
<path d="M41.4013 22.5663C41.2402 22.4275 41.2402 22.2009 41.4013 22.0621C41.5486 21.9104 41.7898 21.9104 41.938 22.0621L42.6348 22.718L43.9899 20.5218C44.0837 20.3581 44.3249 20.2952 44.5127 20.396C44.6866 20.4839 44.7539 20.7115 44.6471 20.8752L43.0776 23.4627C43.0509 23.4877 43.0371 23.5256 42.9975 23.5506C42.8493 23.6893 42.6081 23.6893 42.4609 23.5506L41.4013 22.5543V22.5663Z" fill="#545454"/>
<path d="M46.0553 22.5413C45.8398 22.5413 45.6797 22.3896 45.6797 22.188C45.6797 21.9863 45.8398 21.8216 46.0553 21.8216H53.9542C54.1687 21.8216 54.3298 21.9863 54.3298 22.188C54.3298 22.3896 54.1687 22.5413 53.9542 22.5413H46.0553Z" fill="#545454"/>
</g>
</svg>
