<svg width="61" height="64" viewBox="0 0 61 64" fill="none" xmlns="http://www.w3.org/2000/svg">
<mask id="mask0_103_1214" style="mask-type:luminance" maskUnits="userSpaceOnUse" x="22" y="54" width="12" height="10">
<path d="M22.8218 54.7003H33.4057V64H22.8218V54.7003Z" fill="white"/>
</mask>
<g mask="url(#mask0_103_1214)">
<path d="M28.5321 54.9612H27.4365C27.142 54.9612 26.8474 54.9897 26.558 55.0465C26.266 55.1059 25.9843 55.1912 25.7104 55.3049C25.4365 55.4186 25.1781 55.5581 24.9327 55.7209C24.6846 55.8863 24.4572 56.0724 24.2479 56.2817C24.0386 56.4935 23.8526 56.7209 23.6872 56.9664C23.5218 57.2145 23.3849 57.4729 23.2712 57.7468C23.1575 58.0207 23.0722 58.3023 23.0128 58.5943C22.9559 58.8837 22.9275 59.1783 22.9275 59.4754C22.9275 59.77 22.9559 60.0646 23.0128 60.354C23.0722 60.646 23.1575 60.9276 23.2712 61.2015C23.3849 61.4754 23.5218 61.7364 23.6872 61.9819C23.8526 62.2274 24.0386 62.4548 24.2479 62.6667C24.4572 62.876 24.6846 63.062 24.9327 63.2274C25.1781 63.3902 25.4365 63.5297 25.7104 63.6434C25.9843 63.7571 26.266 63.8424 26.558 63.9018C26.8474 63.9586 27.142 63.9871 27.4365 63.9871H28.5321C28.8267 63.9871 29.1213 63.9586 29.4107 63.9018C29.7027 63.8424 29.9843 63.7571 30.2582 63.6434C30.5321 63.5297 30.7905 63.3902 31.036 63.2274C31.2841 63.062 31.5115 62.876 31.7208 62.6667C31.9301 62.4548 32.1161 62.2274 32.2815 61.9819C32.4469 61.7364 32.5864 61.4754 32.6975 61.2015C32.8112 60.9276 32.8965 60.646 32.9559 60.354C33.0127 60.0646 33.0412 59.77 33.0412 59.4754C33.0412 59.1783 33.0127 58.8837 32.9559 58.5943C32.8965 58.3023 32.8112 58.0207 32.6975 57.7468C32.5864 57.4729 32.4469 57.2145 32.2815 56.9664C32.1161 56.7209 31.9301 56.4935 31.7208 56.2817C31.5115 56.0724 31.2841 55.8863 31.036 55.7209C30.7905 55.5581 30.5321 55.4186 30.2582 55.3049C29.9843 55.1912 29.7027 55.1059 29.4107 55.0465C29.1213 54.9897 28.8267 54.9612 28.5321 54.9612ZM28.5321 62.4987H27.4365C27.2401 62.4987 27.0438 62.4806 26.8474 62.4419C26.6536 62.4031 26.465 62.3437 26.2815 62.2687C26.098 62.1938 25.9223 62.0982 25.7569 61.9897C25.5942 61.8785 25.4391 61.7545 25.2996 61.6124C25.16 61.4729 25.0334 61.3204 24.9249 61.155C24.8138 60.9897 24.7208 60.8139 24.6458 60.6305C24.5683 60.447 24.5115 60.2584 24.4727 60.0646C24.4339 59.8682 24.4159 59.6718 24.4159 59.4754C24.4159 59.2765 24.4339 59.0801 24.4727 58.8837C24.5115 58.6899 24.5683 58.5013 24.6458 58.3178C24.7208 58.1344 24.8138 57.9587 24.9249 57.7933C25.0334 57.6279 25.16 57.4755 25.2996 57.3359C25.4391 57.1938 25.5942 57.0698 25.7569 56.9587C25.9223 56.8501 26.098 56.7545 26.2815 56.6796C26.465 56.6047 26.6536 56.5452 26.8474 56.5065C27.0438 56.4677 27.2401 56.4496 27.4365 56.4496H28.5321C28.7285 56.4496 28.9275 56.4677 29.1213 56.5065C29.3151 56.5452 29.5037 56.6047 29.6872 56.6796C29.8706 56.7545 30.0463 56.8501 30.2117 56.9587C30.3745 57.0698 30.5295 57.1938 30.6691 57.3359C30.8086 57.4755 30.9352 57.6279 31.0438 57.7933C31.1549 57.9587 31.2479 58.1344 31.3228 58.3178C31.4003 58.5013 31.4572 58.6899 31.496 58.8837C31.5347 59.0801 31.5554 59.2765 31.5554 59.4754C31.5554 59.6718 31.5347 59.8682 31.496 60.0646C31.4572 60.2584 31.4003 60.447 31.3228 60.6305C31.2479 60.8139 31.1549 60.9897 31.0438 61.155C30.9352 61.3204 30.8086 61.4729 30.6691 61.6124C30.5295 61.7545 30.3745 61.8785 30.2117 61.9897C30.0463 62.0982 29.8706 62.1938 29.6872 62.2687C29.5037 62.3437 29.3151 62.4031 29.1213 62.4419C28.9275 62.4806 28.7285 62.4987 28.5321 62.4987Z" fill="#00AD74"/>
</g>
<path d="M39.8087 25.1498C37.2195 22.832 33.8242 21.6486 29.7053 21.6486C27.9482 21.5917 26.2247 21.8062 24.5322 22.2842C22.8397 22.7648 21.2609 23.4909 19.7958 24.4625C18.6562 25.2377 17.6743 26.1757 16.8474 27.2765C16.7415 27.4212 16.6433 27.5736 16.5529 27.7312C16.465 27.8863 16.3849 28.0491 16.3151 28.2144C16.2454 28.3798 16.1834 28.5504 16.1343 28.7235C16.0852 28.8966 16.0438 29.0723 16.0128 29.2506C15.9844 29.4289 15.9637 29.6072 15.956 29.7881C15.9482 29.969 15.9482 30.1473 15.9611 30.3281C15.9741 30.509 15.9947 30.6873 16.0283 30.863C16.0619 31.0413 16.1058 31.217 16.1601 31.3876C16.2118 31.5607 16.2764 31.7287 16.3487 31.894C16.4211 32.0594 16.5038 32.2196 16.5968 32.3746C16.6872 32.5297 16.788 32.6796 16.8991 32.8217C17.0077 32.9664 17.1239 33.1033 17.2505 33.2325C17.3746 33.3617 17.5089 33.4832 17.6485 33.5969C17.788 33.7131 17.9327 33.8191 18.0852 33.9147C18.2376 34.0129 18.3952 34.1007 18.5555 34.1783C18.7182 34.2584 18.8836 34.3281 19.0542 34.385L19.2247 34.447C19.7027 34.615 20.1937 34.7002 20.7002 34.7054C21.2066 34.7106 21.7002 34.6356 22.1834 34.478C22.664 34.3204 23.1084 34.093 23.5141 33.7907C23.9198 33.4883 24.2686 33.1292 24.558 32.7131C24.8268 32.3333 25.1446 32 25.5089 31.708C26.0386 31.3075 26.6226 31.0077 27.2583 30.8088C27.8939 30.6124 28.5451 30.5297 29.2118 30.5607C29.7906 30.5452 30.3513 30.6356 30.8991 30.8268C31.4443 31.0181 31.9404 31.3023 32.3823 31.6744C32.8113 32.0439 33.1342 32.4883 33.3565 33.0103C33.5761 33.5297 33.6717 34.0723 33.6407 34.6382C33.6433 35.1602 33.5684 35.6744 33.4159 36.1731C33.2505 36.677 32.9973 37.1292 32.6536 37.5323C32.3358 37.9302 31.9921 38.3049 31.6226 38.6537L29.0076 41.0542C27.2712 42.5142 25.7544 44.1757 24.4547 46.0361V46.0852C24.248 46.4005 24.0877 46.739 23.9741 47.0981C23.8604 47.4573 23.7958 47.8268 23.7828 48.2041C23.7699 48.5813 23.8087 48.9534 23.8965 49.3204C23.987 49.6873 24.1213 50.0361 24.3048 50.3669C24.4883 50.7028 24.7131 51.0103 24.9792 51.2868C25.2454 51.5633 25.5425 51.7984 25.8707 51.9948C26.2014 52.1912 26.5503 52.341 26.9198 52.4418C27.2893 52.5452 27.6666 52.5943 28.049 52.5943H29.4082C29.8216 52.5943 30.2273 52.5348 30.6252 52.416C31.0206 52.2945 31.3926 52.1214 31.7363 51.8914C32.0826 51.6614 32.3875 51.385 32.651 51.0671C32.9146 50.7467 33.1265 50.3953 33.2867 50.0129C33.3332 49.8966 33.3875 49.7751 33.4495 49.6589C33.7389 49.0516 34.1239 48.5167 34.6045 48.049L38.8242 44.2687C40.2919 42.8914 41.5167 41.323 42.4986 39.5658C43.3849 37.6589 43.788 35.6563 43.7079 33.5581C43.7079 32.7571 43.6226 31.9664 43.4495 31.1834C43.2764 30.4031 43.0231 29.6486 42.6846 28.9225C42.3487 28.1964 41.9379 27.5142 41.4521 26.8785C40.9663 26.2429 40.4185 25.6666 39.8087 25.1498ZM41.2066 38.8785C40.3022 40.4961 39.1678 41.9354 37.8112 43.1963L33.6045 46.9405C32.987 47.5297 32.4908 48.2093 32.1187 48.9793C32.0438 49.1291 31.9689 49.2842 31.9017 49.4418C31.7957 49.6899 31.6588 49.9173 31.4857 50.1266C31.3125 50.3333 31.1162 50.5116 30.8914 50.6589C30.6665 50.8061 30.4237 50.9198 30.1653 50.9948C29.9069 51.0723 29.6433 51.1085 29.3746 51.1059H28.0154C27.5038 51.1111 27.0283 50.9819 26.589 50.7209C26.1498 50.4599 25.8113 50.1033 25.5684 49.6537C25.3281 49.2196 25.2144 48.7545 25.2324 48.2583C25.248 47.7622 25.3927 47.3074 25.664 46.894V46.8527C26.8862 45.0981 28.3125 43.5323 29.943 42.155L32.6071 39.7493C33.0309 39.3514 33.4237 38.9276 33.7828 38.4702C34.2531 37.9224 34.5994 37.3023 34.8216 36.6149C35.018 35.9715 35.1136 35.3126 35.1136 34.6382C35.142 33.8578 34.9999 33.1085 34.6846 32.3953C34.372 31.6796 33.9198 31.0672 33.328 30.5607C32.7544 30.0697 32.1136 29.6976 31.403 29.4418C30.695 29.186 29.9637 29.062 29.2118 29.0697C28.3823 29.0465 27.5709 29.1602 26.7828 29.416C25.9921 29.6718 25.2686 30.0542 24.6123 30.5607C24.1368 30.9354 23.7208 31.3721 23.3694 31.8656C23.1704 32.1524 22.9327 32.4005 22.6536 32.6098C22.3746 32.8191 22.0697 32.9793 21.7363 33.0852C21.4056 33.1938 21.0645 33.2454 20.7157 33.2429C20.3668 33.2377 20.0283 33.1783 19.7002 33.062L19.5296 33C19.2996 32.9173 19.08 32.8113 18.8733 32.677C18.6666 32.5452 18.4779 32.3901 18.3074 32.2119C18.1369 32.0361 17.9896 31.8423 17.8629 31.6305C17.7389 31.4186 17.6381 31.1964 17.5658 30.9612C17.4934 30.7261 17.4495 30.4858 17.4314 30.2403C17.4159 29.9948 17.4263 29.7519 17.4676 29.509C17.5064 29.2661 17.5735 29.031 17.6692 28.8062C17.7648 28.5788 17.8836 28.3669 18.0283 28.1679C18.7622 27.1964 19.6278 26.3669 20.6304 25.6796C21.9741 24.7984 23.4185 24.1421 24.9663 23.708C26.5115 23.2739 28.0877 23.0827 29.6924 23.1369C33.4366 23.1369 36.4857 24.1834 38.8035 26.2558C39.3384 26.7028 39.8164 27.2015 40.2428 27.7519C40.6665 28.3023 41.0257 28.894 41.3203 29.5271C41.6123 30.1576 41.8345 30.8113 41.9818 31.4935C42.1317 32.1731 42.204 32.8604 42.1988 33.5581C42.2944 35.4108 41.9637 37.1834 41.2066 38.8785Z" fill="#00AD74"/>
<path d="M60.4599 31.3539C60.4082 31.1627 60.2997 31.0129 60.1317 30.9069C59.9663 30.801 59.7855 30.7674 59.5891 30.8036C54.6304 31.8242 50.9767 31.186 48.7209 28.9224C44.6459 24.8423 46.2894 16.7338 46.31 16.6537C46.3385 16.5064 46.3255 16.3617 46.2713 16.2222C46.2144 16.0827 46.1266 15.9715 46.0025 15.8837C45.8785 15.8062 45.7416 15.7648 45.5917 15.7648C45.4444 15.7648 45.3074 15.8062 45.1808 15.8837C41.9612 17.925 39.0077 18.4754 36.3901 17.4547C30.5684 15.1783 28.0491 5.96122 28.0284 5.87336C27.9793 5.70023 27.8811 5.56587 27.7338 5.46509C27.5865 5.36432 27.4237 5.32039 27.2455 5.33589C27.0672 5.3514 26.9147 5.42375 26.7881 5.54778C26.6615 5.67181 26.5865 5.82427 26.5685 6.00256C26.1343 11.5064 24.292 15.3617 21.093 17.4625C15.8088 20.9276 8.46512 18.4392 8.39018 18.4392C8.23256 18.385 8.07235 18.3824 7.91214 18.4341C7.75194 18.4857 7.62532 18.5814 7.52972 18.7209C7.43411 18.8578 7.39277 19.0129 7.4031 19.1808C7.41085 19.3488 7.47028 19.4961 7.5814 19.6227C10.5375 23.0826 11.7106 26.3514 11.0672 29.3488C10.0336 34.1421 4.62016 36.739 4.5659 36.7932C4.43153 36.8785 4.33851 36.9948 4.27907 37.1421C4.22223 37.2893 4.21189 37.4392 4.25065 37.5942C4.28941 37.7467 4.36693 37.8759 4.48838 37.9767C4.60724 38.08 4.74677 38.1369 4.9044 38.1524C10.7597 37.9741 14.3747 39.0619 15.3385 41.2842C16.8527 44.7519 12.0103 50.8009 10.0129 52.7932C9.94315 52.863 9.89147 52.9431 9.85271 53.0335C9.81395 53.1265 9.79586 53.2196 9.79586 53.3203C9.79586 53.4185 9.81395 53.5141 9.85271 53.6046C9.89147 53.695 9.94315 53.7751 10.0129 53.8449C10.0827 53.9146 10.1628 53.9663 10.2532 54.0051C10.3437 54.0413 10.4393 54.0593 10.5375 54.0593C10.6331 54.0593 10.7287 54.0413 10.8191 54.0051C10.9096 53.9663 10.9897 53.9146 11.0594 53.8449C11.385 53.5193 18.9121 45.7984 16.6977 40.7002C15.6253 38.2532 12.54 36.9069 7.47287 36.7028C9.34108 35.3436 11.7726 32.9999 12.4935 29.6614C13.1318 26.7183 12.3101 23.6072 10.0465 20.3901C12.8398 20.9483 17.8062 21.3772 21.8811 18.7054C24.8217 16.7752 26.7442 13.5943 27.6072 9.22478C28.9121 12.3901 31.5194 17.155 35.8475 18.8423C38.5659 19.894 41.4857 19.5891 44.6175 17.9379C44.3126 20.7106 44.1757 26.4806 47.6614 29.9896C49.4211 31.757 51.8449 32.708 54.8888 32.7751C51.9819 34.2764 48.5452 36.6899 47.2067 40.1033C46.2015 42.6795 46.5271 45.4237 48.2118 48.2583C48.2609 48.3436 48.3255 48.4159 48.403 48.4754C48.4832 48.5348 48.5684 48.5761 48.664 48.602C48.7596 48.6252 48.8578 48.6304 48.9534 48.6175C49.0516 48.6046 49.1421 48.571 49.2273 48.5219C49.3126 48.4728 49.385 48.4082 49.4444 48.3281C49.5012 48.2506 49.5452 48.1627 49.5684 48.0671C49.5943 47.9715 49.5994 47.8759 49.5839 47.7777C49.571 47.6795 49.5374 47.5891 49.4883 47.5038C48.0542 45.0723 47.7571 42.7467 48.5839 40.633C50.7648 35.0723 59.8604 32.279 59.9508 32.2532C60.1395 32.1937 60.2868 32.08 60.3849 31.9043C60.4831 31.7312 60.5064 31.5477 60.4599 31.3539Z" fill="#00AD74"/>
<path d="M5.0465 17.0801C5.12144 17.1499 5.20671 17.2015 5.30231 17.2351C5.39792 17.2687 5.49611 17.2817 5.59689 17.2739C5.69766 17.2661 5.79327 17.2403 5.88371 17.1938C5.97415 17.1473 6.04908 17.0853 6.11368 17.0052C6.17828 16.9328 6.22479 16.8475 6.2558 16.7545C6.28681 16.6615 6.29714 16.5659 6.29198 16.4677C6.28422 16.3695 6.25839 16.2765 6.21446 16.1886C6.17053 16.1008 6.11368 16.0233 6.03875 15.9587L2.75193 13.124C2.67699 13.0594 2.59431 13.0129 2.4987 12.9819C2.40568 12.9509 2.31007 12.938 2.21188 12.9457C2.11369 12.9535 2.02066 12.9793 1.93281 13.0233C1.84495 13.0672 1.77002 13.1266 1.70542 13.199C1.64082 13.2739 1.59431 13.3592 1.56072 13.4522C1.52971 13.5452 1.51937 13.6408 1.52713 13.739C1.53229 13.8372 1.55813 13.9302 1.60206 14.0181C1.64599 14.1059 1.70542 14.1835 1.78035 14.2455L5.0465 17.0801Z" fill="#00AD74"/>
<path d="M46.4778 48.2118C46.4339 48.1239 46.3744 48.049 46.2995 47.9844C46.2246 47.9198 46.1393 47.8733 46.0463 47.8449C45.9507 47.8139 45.8551 47.8035 45.7569 47.8113C45.6587 47.819 45.5682 47.8449 45.4804 47.8914C45.3925 47.9353 45.3176 47.9973 45.253 48.0723C45.191 48.1472 45.1419 48.2299 45.1135 48.3255C45.0824 48.4185 45.0721 48.5141 45.0799 48.6123C45.0902 48.7105 45.116 48.8035 45.16 48.8914L48.4287 55.2118C48.4933 55.3384 48.5889 55.4366 48.7103 55.5089C48.8344 55.5813 48.9662 55.6175 49.1083 55.6123C49.2297 55.6149 49.3408 55.5839 49.4468 55.5244C49.5346 55.4805 49.6122 55.4211 49.6768 55.3461C49.7388 55.2712 49.7879 55.1859 49.8163 55.0929C49.8473 54.9973 49.8576 54.9017 49.8499 54.8035C49.8395 54.7053 49.8137 54.6123 49.7672 54.527L46.4778 48.2118Z" fill="#00AD74"/>
<path d="M39.0671 11.1602C39.248 11.1628 39.4056 11.1059 39.5425 10.9897L43.4754 7.72093C43.5529 7.65892 43.6123 7.58398 43.6588 7.49613C43.7053 7.40827 43.7312 7.31525 43.7415 7.21706C43.7493 7.11887 43.7389 7.02326 43.7105 6.93024C43.6821 6.83463 43.6356 6.74936 43.571 6.67442C43.509 6.59949 43.434 6.53747 43.3462 6.49096C43.2583 6.44703 43.1653 6.41861 43.0671 6.41086C42.9689 6.40052 42.8733 6.41086 42.7803 6.44187C42.6847 6.47029 42.602 6.5168 42.5245 6.57882L38.6046 9.85013C38.4857 9.94832 38.403 10.0749 38.3643 10.2248C38.3229 10.3773 38.3281 10.5245 38.3823 10.6718C38.434 10.8191 38.5245 10.938 38.6537 11.0284C38.7829 11.1163 38.925 11.1628 39.08 11.1602H39.0671Z" fill="#00AD74"/>
<mask id="mask1_103_1214" style="mask-type:luminance" maskUnits="userSpaceOnUse" x="34" y="0" width="5" height="8">
<path d="M34.7285 0H38.036V7.07234H34.7285V0Z" fill="white"/>
</mask>
<g mask="url(#mask1_103_1214)">
<path d="M36.1731 6.24033C36.2144 6.4057 36.3023 6.54007 36.4366 6.64601C36.571 6.75196 36.7235 6.80364 36.894 6.80364C36.9534 6.81397 37.0103 6.81397 37.0697 6.80364C37.1653 6.78038 37.2532 6.73904 37.3333 6.68219C37.4108 6.62276 37.478 6.55299 37.5271 6.46772C37.5788 6.38503 37.6124 6.29201 37.6279 6.1964C37.6408 6.09821 37.6382 6.0026 37.6149 5.907L36.3023 0.653772C36.279 0.558165 36.2377 0.47031 36.1782 0.390207C36.1214 0.310103 36.049 0.245504 35.9638 0.196409C35.8811 0.144729 35.7881 0.111137 35.6925 0.0982175C35.5943 0.082714 35.4987 0.0878818 35.4031 0.111137C35.3074 0.136977 35.2196 0.175737 35.1395 0.235168C35.062 0.2946 34.9974 0.366951 34.9457 0.449638C34.8966 0.53491 34.863 0.625348 34.8475 0.72354C34.8346 0.82173 34.8397 0.917337 34.863 1.01294L36.1731 6.24033Z" fill="#00AD74"/>
</g>
<path d="M9.03625 49.0284C8.95873 48.9664 8.87088 48.9225 8.77786 48.8967C8.68225 48.8708 8.58664 48.8631 8.48845 48.876C8.39026 48.8889 8.29982 48.9199 8.21455 48.9664C8.12928 49.0155 8.05693 49.0775 7.99491 49.155L4.29466 53.9819C4.1112 54.2274 4.08536 54.4858 4.21972 54.7597C4.35409 55.0336 4.57373 55.1731 4.87864 55.1783C5.12153 55.1783 5.3205 55.0801 5.46778 54.8863L9.17062 50.093C9.23522 50.0155 9.27915 49.9277 9.30757 49.8295C9.336 49.7313 9.34116 49.6331 9.32824 49.5323C9.31791 49.4315 9.28432 49.3359 9.23264 49.2507C9.18354 49.1628 9.11636 49.0879 9.03625 49.0284Z" fill="#00AD74"/>
<path d="M15.1136 9.6383H15.8966V10.4187C15.9147 10.6125 15.9948 10.7727 16.1369 10.9019C16.279 11.0311 16.447 11.0957 16.6408 11.0957C16.832 11.0957 16.9999 11.0311 17.142 10.9019C17.2842 10.7727 17.3643 10.6125 17.3849 10.4187V9.6383H18.1653C18.3565 9.62021 18.5167 9.54011 18.6459 9.39799C18.7751 9.25329 18.8423 9.08791 18.8423 8.89411C18.8423 8.70032 18.7751 8.53494 18.6459 8.39024C18.5167 8.24812 18.3565 8.16802 18.1653 8.14993H17.3849V7.36698C17.3643 7.17577 17.2842 7.01556 17.142 6.88636C16.9999 6.75717 16.832 6.69257 16.6408 6.69257C16.447 6.69257 16.279 6.75717 16.1369 6.88636C15.9948 7.01556 15.9147 7.17577 15.8966 7.36698V8.14993H15.1136C14.9224 8.16802 14.7622 8.24812 14.633 8.39024C14.5038 8.53494 14.4392 8.70032 14.4392 8.89411C14.4392 9.08791 14.5038 9.25329 14.633 9.39799C14.7622 9.54011 14.9224 9.62021 15.1136 9.6383Z" fill="#00AD74"/>
<mask id="mask2_103_1214" style="mask-type:luminance" maskUnits="userSpaceOnUse" x="0" y="38" width="5" height="7">
<path d="M0 38.8243H4.96123V44.7778H0V38.8243Z" fill="white"/>
</mask>
<g mask="url(#mask2_103_1214)">
<path d="M4.53229 41.7959C4.53229 41.6977 4.51162 41.6021 4.47545 41.5116C4.43669 41.4212 4.38501 41.3411 4.31524 41.2713C4.24547 41.2016 4.16537 41.1473 4.07493 41.1111C3.98449 41.0724 3.88888 41.0543 3.79069 41.0543H3.01033V40.2713C3.02067 40.168 3.00775 40.0646 2.97416 39.9664C2.94056 39.8657 2.88889 39.7752 2.81912 39.6977C2.74677 39.6202 2.66408 39.5607 2.56847 39.5168C2.47287 39.4755 2.37209 39.4548 2.26615 39.4548C2.1602 39.4548 2.05943 39.4755 1.96382 39.5168C1.86821 39.5607 1.78294 39.6202 1.71318 39.6977C1.64082 39.7752 1.58915 39.8657 1.55555 39.9664C1.52455 40.0646 1.51163 40.168 1.52196 40.2713V41.0543H0.741601C0.64341 41.0543 0.547803 41.0724 0.457364 41.1111C0.366925 41.1473 0.286821 41.2016 0.217054 41.2713C0.147286 41.3411 0.0930228 41.4212 0.0568475 41.5116C0.0180877 41.6021 0 41.6977 0 41.7959C0 41.8941 0.0180877 41.9871 0.0568475 42.0775C0.0930228 42.1706 0.147286 42.2507 0.217054 42.3178C0.286821 42.3876 0.366925 42.4419 0.457364 42.4806C0.547803 42.5168 0.64341 42.5349 0.741601 42.5349H1.52196V43.3178C1.51163 43.4212 1.52455 43.5246 1.55555 43.6253C1.58915 43.7235 1.64082 43.814 1.71318 43.8915C1.78294 43.969 1.86821 44.031 1.96382 44.0724C2.05943 44.1163 2.1602 44.137 2.26615 44.137C2.37209 44.137 2.47287 44.1163 2.56847 44.0724C2.66408 44.031 2.74677 43.969 2.81912 43.8915C2.88889 43.814 2.94056 43.7235 2.97416 43.6253C3.00775 43.5246 3.02067 43.4212 3.01033 43.3178V42.5349H3.79069C3.88888 42.5349 3.98449 42.5168 4.07493 42.4806C4.16537 42.4419 4.24547 42.3876 4.31524 42.3178C4.38501 42.2507 4.43669 42.1706 4.47545 42.0775C4.51162 41.9871 4.53229 41.8941 4.53229 41.7959Z" fill="#00AD74"/>
</g>
<path d="M54.0928 23.3617H54.8757V24.1421C54.8654 24.248 54.8757 24.3514 54.9093 24.4496C54.9429 24.5504 54.9946 24.6382 55.0669 24.7183C55.1367 24.7958 55.2194 24.8553 55.3176 24.8992C55.4132 24.9405 55.514 24.9612 55.6199 24.9612C55.7233 24.9612 55.824 24.9405 55.9222 24.8992C56.0178 24.8553 56.1005 24.7958 56.1729 24.7183C56.2426 24.6382 56.2943 24.5504 56.3279 24.4496C56.3615 24.3514 56.3718 24.248 56.3615 24.1421V23.3617H57.1445C57.2426 23.3617 57.3357 23.3436 57.4261 23.3049C57.5191 23.2687 57.5992 23.2144 57.6664 23.1447C57.7362 23.0749 57.7904 22.9948 57.8292 22.9044C57.8654 22.8139 57.8835 22.7183 57.8835 22.6201C57.8835 22.5219 57.8654 22.4289 57.8292 22.3359C57.7904 22.2455 57.7362 22.1654 57.6664 22.0956C57.5992 22.0284 57.5191 21.9741 57.4261 21.9354C57.3357 21.8992 57.2426 21.8785 57.1445 21.8785H56.3822V21.0982C56.3925 20.9922 56.3822 20.8915 56.3486 20.7907C56.315 20.6899 56.2633 20.602 56.1935 20.5245C56.1212 20.447 56.0385 20.385 55.9429 20.3437C55.8447 20.2997 55.7439 20.2791 55.6406 20.2791C55.5346 20.2791 55.4339 20.2997 55.3383 20.3437C55.2401 20.385 55.1574 20.447 55.0876 20.5245C55.0153 20.602 54.9636 20.6899 54.93 20.7907C54.8964 20.8915 54.8861 20.9922 54.8964 21.0982V21.8785H54.0928C53.9946 21.8785 53.9016 21.8992 53.8111 21.9354C53.7207 21.9741 53.6406 22.0284 53.5708 22.0956C53.501 22.1654 53.4468 22.2455 53.4106 22.3359C53.3718 22.4289 53.3538 22.5219 53.3538 22.6201C53.3538 22.7183 53.3718 22.8139 53.4106 22.9044C53.4468 22.9948 53.501 23.0749 53.5708 23.1447C53.6406 23.2144 53.7207 23.2687 53.8111 23.3049C53.9016 23.3436 53.9946 23.3617 54.0928 23.3617Z" fill="#00AD74"/>
</svg>
