<svg width="93" height="96" viewBox="0 0 93 96" fill="none" xmlns="http://www.w3.org/2000/svg">
<mask id="mask0_285_1280" style="mask-type:luminance" maskUnits="userSpaceOnUse" x="0" y="0" width="93" height="96">
<path d="M0 0H92.4043V95.875H0V0Z" fill="white"/>
</mask>
<g mask="url(#mask0_285_1280)">
<path fill-rule="evenodd" clip-rule="evenodd" d="M47.6995 67.4697L47.9677 77.5222L47.9738 77.6593V77.7842L48.245 87.8519C48.309 90.2714 46.1607 92.3129 42.623 93.7055C35.4257 96.5393 23.941 96.4967 16.8229 93.8456C13.0658 92.447 10.7226 90.3445 10.6586 87.9281L10.1162 67.6769C10.0156 65.8608 10.9328 64.3738 12.7794 63.0879C13.7392 62.4175 14.9642 61.8172 16.3902 61.3023C14.696 59.5471 14.8606 56.4482 16.5091 52.8495C19.669 45.9356 27.6525 37.9277 34.5451 34.7556C38.1651 33.0919 41.2762 32.9365 43.0191 34.6825C43.0374 34.7008 43.0557 34.7191 43.0709 34.7374L50.4237 41.7275C50.771 42.0566 51.0179 42.3887 51.2281 42.8123C51.7492 42.2028 52.3952 41.6787 53.1326 41.2156C43.074 32.1686 42.6413 16.5094 52.1971 6.92313C61.3964 -2.30055 76.306 -2.30055 85.5023 6.92313C95.0611 16.5094 94.6254 32.1686 84.5668 41.2156C86.3341 42.3308 87.6505 43.7965 87.6475 45.8594L88.4549 76.0534L88.4671 76.3277V76.4526L88.7353 86.5203C88.8023 88.9398 86.6541 90.9813 83.1133 92.3739C75.916 95.2077 64.4344 95.1651 57.3132 92.5141C53.5561 91.1154 51.2129 89.0098 51.1489 86.5965L50.189 50.683C48.4309 54.3 45.3411 58.2582 41.9435 61.5003C44.6798 62.5668 47.7879 64.4835 47.6965 67.4697H47.6995ZM5.46323 8.72093V21.8693C4.26875 21.3879 2.97372 21.5067 1.83104 22.2106C-0.0277084 23.3563 -0.594475 26.0012 0.71884 27.8569L6.07875 35.8221L6.08179 35.8191C7.57184 38.1867 11.0517 38.4366 12.8099 35.8221L18.2094 27.799C18.8219 26.8879 19.0108 25.8123 18.8158 24.8128C18.3374 22.3447 15.7412 20.9369 13.4254 21.8693V8.72093C13.4254 7.61787 12.9805 6.61841 12.2614 5.89624C9.75664 3.38845 5.46323 5.17407 5.46323 8.72093ZM8.74804 8.02314C8.5713 8.19987 8.46161 8.44974 8.46161 8.72093V25.5563H8.45856C8.45856 27.0281 6.54496 27.6223 5.71919 26.3974L4.79286 25.017C4.29617 24.2796 3.17483 24.5356 3.01333 25.3766C2.96458 25.6264 3.01028 25.8946 3.16264 26.1201L8.56216 34.1432L8.55607 34.1462C8.76937 34.4631 9.01009 34.6795 9.44583 34.6795C9.9029 34.6795 10.1223 34.4509 10.3295 34.1432L15.7503 26.0835C16.1922 25.4192 15.601 24.4289 14.7204 24.5995C14.4766 24.6483 14.2481 24.7915 14.0958 25.017L13.209 26.3364C12.3619 27.665 10.4301 27.0251 10.4301 25.5563V8.72093C10.4301 7.84336 9.3666 7.40457 8.74804 8.02314ZM20.3698 20.5438V33.6922C20.3698 34.7953 20.8147 35.7947 21.5369 36.5169C24.0386 39.0277 28.332 37.2391 28.332 33.6922V20.5438C29.5325 21.0283 30.919 20.9156 32.0434 20.1538C33.8625 18.9227 34.344 16.4393 33.116 14.6141L27.7164 6.59099L27.7134 6.59404C26.2264 4.22946 22.7435 3.97959 20.9853 6.59099L15.5858 14.6141C14.9733 15.5282 14.7875 16.6008 14.9794 17.6033C15.4578 20.0715 18.0631 21.4732 20.3698 20.5438ZM19.0778 17.8136C19.3216 17.7648 19.5471 17.6247 19.6994 17.3961L20.5861 16.0798C21.4363 14.7512 23.3682 15.3911 23.3682 16.8568V33.6922C23.3682 34.5728 24.4316 35.0116 25.0472 34.39C25.2269 34.2133 25.3366 33.9664 25.3366 33.6922V16.8568C25.3397 15.3881 27.2502 14.7908 28.076 16.0188L29.0054 17.3961C29.499 18.1335 30.6204 17.8806 30.7849 17.0396C30.8337 16.7897 30.788 16.5216 30.6356 16.2931L25.2361 8.26996L25.2391 8.26691C25.0258 7.95306 24.7881 7.73366 24.3524 7.73366C23.8923 7.73366 23.6759 7.9622 23.4687 8.26996L18.0692 16.2931C17.5786 17.0213 18.2155 17.9812 19.0778 17.8136ZM21.8385 62.3505L25.9582 66.266C26.7383 67.0065 28.6793 66.6805 31.1871 65.5256C37.4642 62.64 45.0668 55.013 47.8336 48.6506C48.9184 46.158 49.022 44.5247 48.3638 43.9001L44.0765 39.823C42.4219 48.1508 30.1359 60.4734 21.8385 62.3505ZM35.7853 37.4828C29.5782 40.3349 22.0701 47.8675 19.2241 54.0928C18.0997 56.5518 17.7889 58.4562 18.5537 59.2241C19.3185 59.992 21.2169 59.6781 23.6668 58.5507C29.8738 55.6955 37.385 48.163 40.231 41.9377C41.3524 39.4817 41.6662 37.5773 40.9014 36.8094C40.1366 36.0415 38.2382 36.3554 35.7853 37.4828ZM18.8676 63.6577C17.0423 64.1727 15.5431 64.8187 14.4888 65.553C13.6021 66.1716 13.0993 66.7902 13.0993 67.3539C13.0993 68.4387 14.6625 69.563 17.1886 70.5046C23.5906 72.8875 34.2129 72.8875 40.6119 70.5046C43.141 69.563 44.7012 68.4387 44.7012 67.3539C44.7012 66.8145 44.2441 66.2264 43.4305 65.6353C42.4615 64.9314 41.069 64.3006 39.3626 63.7857C36.9675 65.7419 34.5816 67.2625 32.4304 68.2497C28.786 69.9257 25.6474 70.1024 23.8984 68.4387L18.8706 63.6577H18.8676ZM61.7438 10.3115C58.4986 10.3115 55.8659 12.9534 55.8659 16.2077C55.8659 19.4651 58.4986 22.107 61.7438 22.107C64.989 22.107 67.6217 19.4651 67.6217 16.2077C67.6217 12.9534 64.989 10.3115 61.7438 10.3115ZM63.7823 14.1662C61.9723 12.3501 58.8612 13.6421 58.8612 16.2077C58.8612 18.7765 61.9723 20.0685 63.7823 18.2524C64.9067 17.1249 64.9067 15.2936 63.7823 14.1662ZM75.9556 25.145C72.7104 25.145 70.0777 27.7868 70.0777 31.0412C70.0777 34.2986 72.7104 36.9404 75.9556 36.9404C79.2038 36.9404 81.8366 34.2986 81.8366 31.0412C81.8366 27.7868 79.2038 25.145 75.9556 25.145ZM77.9941 28.9996C76.1841 27.1835 73.0761 28.4755 73.0761 31.0412C73.0761 33.6099 76.1841 34.9019 77.9941 33.0858C79.1185 31.9584 79.1185 30.127 77.9941 28.9996ZM74.3528 11.0642L60.7596 34.6856C60.3451 35.4016 60.5889 36.3188 61.3019 36.7332C62.018 37.1476 62.9322 36.9039 63.3466 36.1878L76.9429 12.5664C77.3573 11.8503 77.1105 10.9332 76.3974 10.5187C75.6844 10.1043 74.7672 10.3481 74.3528 11.0642ZM82.0164 43.2114C74.0755 48.5927 63.6269 48.5927 55.6861 43.2114C54.6958 43.702 53.0503 44.7167 53.0503 45.7436C53.0503 46.8284 54.6104 47.9528 57.1396 48.8943C63.5385 51.2772 74.1609 51.2772 80.5629 48.8943C83.089 47.9528 84.6521 46.8284 84.6521 45.7436C84.6521 44.7167 83.0067 43.702 82.0164 43.2114ZM83.3815 9.05002C75.3553 0.999499 62.3441 0.999499 54.3179 9.05002C46.2918 17.1006 46.2918 30.1514 54.3179 38.202C62.3441 46.2525 75.3553 46.2525 83.3815 38.202C91.4076 30.1514 91.4076 17.1006 83.3815 9.05002ZM84.774 50.1254C77.7351 54.8423 60.3573 54.8423 53.1661 50.2808L53.3093 55.7108C53.3185 55.7656 53.3215 55.8235 53.3215 55.8784C53.3215 56.9662 54.8816 58.0906 57.4077 59.0322C63.9621 61.4729 74.5905 61.3571 80.8341 59.0322C83.3601 58.0936 84.9233 56.9662 84.9233 55.8814C84.9233 55.8022 84.9264 55.854 84.9264 55.8814L84.9233 55.7199C84.8746 53.8551 84.8258 51.9902 84.774 50.1254ZM85.0513 60.4247C81.2332 62.9599 74.5631 63.9563 69.1239 63.9563C64.3186 63.9563 57.557 63.1214 53.4373 60.4765L53.5836 65.8516C53.5896 65.9065 53.5927 65.9613 53.5927 66.0192C53.5927 67.7256 57.1914 69.0938 59.5072 69.7581C62.2466 70.5137 65.6654 70.9586 69.3921 70.9586C73.4631 70.9586 77.7839 70.4071 81.1053 69.173C83.6313 68.2314 85.1945 67.1071 85.1945 66.0192C85.1945 65.9156 85.1976 65.9827 85.1976 66.0131L85.1945 65.8608C85.1488 64.0477 85.1001 62.2377 85.0513 60.4277V60.4247ZM84.9294 55.8906V55.8814H84.9264L84.9294 55.8906ZM85.3225 70.5656C81.2302 73.2805 74.1609 74.0972 69.3951 74.0972C64.5715 74.0972 57.8191 73.2562 53.7085 70.6143L53.8578 76.1235L53.87 76.3643C54.001 77.4064 55.5825 78.5064 58.0811 79.4388C64.4923 81.8247 74.9775 81.8247 81.3795 79.4418C83.9056 78.5003 85.4688 77.3759 85.4688 76.2911C85.4688 76.2028 85.4718 76.2485 85.4749 76.2789L85.4688 76.1296C85.423 74.2739 85.3713 72.4213 85.3225 70.5656ZM85.5937 80.7034C81.5867 83.3635 74.6819 84.235 69.6663 84.235C64.1693 84.235 57.7856 83.2386 53.9827 80.8283L54.1351 86.5264C54.1656 87.599 55.7683 88.7448 58.3554 89.7076C64.8488 92.124 75.5869 92.1118 82.0255 89.5797C84.3291 88.6716 85.746 87.6234 85.746 86.6239C85.746 86.5447 85.7491 86.5965 85.7491 86.6239C85.7003 84.6494 85.6455 82.6779 85.5937 80.7034ZM85.7491 86.6239C85.7491 86.6392 85.7521 86.6483 85.7491 86.6239V86.6239ZM13.2151 71.8911L13.3644 77.4521L13.3766 77.6989C13.5107 78.741 15.0922 79.841 17.5908 80.7704C23.9989 83.1563 34.4872 83.1563 40.8892 80.7734C43.4153 79.8319 44.9785 78.7075 44.9785 77.6227C44.9785 77.5343 44.9815 77.5831 44.9815 77.6105L44.9785 77.4643C44.9297 75.5537 44.8779 73.6432 44.8261 71.7356C37.7872 76.4526 20.4094 76.4526 13.2182 71.8911H13.2151ZM45.1003 82.035C41.0964 84.6951 34.1886 85.5666 29.176 85.5666C23.6759 85.5666 17.2922 84.5732 13.4924 82.1599L13.6448 87.858C13.6722 88.9306 15.278 90.0763 17.8651 91.0392C24.3555 93.4556 35.0966 93.4465 41.5321 90.9113C43.8358 90.0063 45.2527 88.955 45.2527 87.9555C45.2527 87.8794 45.2557 87.9281 45.2588 87.9555C45.207 85.984 45.1552 84.0095 45.1003 82.035ZM45.2588 87.9555C45.2588 87.9708 45.2588 87.9799 45.2588 87.9555V87.9555Z" fill="#B436E2"/>
</g>
</svg>
