<svg width="66" height="66" viewBox="0 0 66 66" fill="none" xmlns="http://www.w3.org/2000/svg">
<path d="M27.5 27.5C33.5751 27.5 38.5 22.5751 38.5 16.5C38.5 10.4249 33.5751 5.5 27.5 5.5C21.4249 5.5 16.5 10.4249 16.5 16.5C16.5 22.5751 21.4249 27.5 27.5 27.5Z" stroke="#2DA823" stroke-width="4"/>
<path d="M49.5 48.125C49.5 54.9587 49.5 60.5 27.5 60.5C5.5 60.5 5.5 54.9587 5.5 48.125C5.5 41.2913 15.3505 35.75 27.5 35.75C39.6495 35.75 49.5 41.2913 49.5 48.125Z" stroke="#2DA823" stroke-width="4"/>
<path d="M52.25 5.5C52.25 5.5 57.75 8.8 57.75 16.5C57.75 24.2 52.25 27.5 52.25 27.5M46.75 11C46.75 11 49.5 12.65 49.5 16.5C49.5 20.35 46.75 22 46.75 22" stroke="#2DA823" stroke-width="4" stroke-linecap="round"/>
</svg>
