<svg width="117" height="108" viewBox="0 0 117 108" fill="none" xmlns="http://www.w3.org/2000/svg">
<mask id="mask0_285_1208" style="mask-type:luminance" maskUnits="userSpaceOnUse" x="0" y="0" width="117" height="108">
<path d="M0 0H116.068V107.37H0V0Z" fill="white"/>
</mask>
<g mask="url(#mask0_285_1208)">
<path d="M108.994 3.79256C105.777 5.89627 99.1927 10.197 94.3419 13.3526C89.4687 16.4888 85.57 19.1362 85.6697 19.2134C85.7469 19.2906 86.1748 19.4675 86.6058 19.6026C88.1241 20.069 95.9567 22.9704 96.1336 23.1281C96.3459 23.3211 95.0432 25.502 93.4059 27.7408C88.2592 34.7339 80.6228 40.7491 70.6253 45.7542C63.941 49.1028 57.6492 51.4188 47.9251 54.1659C42.312 55.742 39.8577 56.5012 36.6603 57.6881C26.6435 61.3873 18.9878 65.9647 12.8279 71.9413C6.82876 77.7442 3.00733 84.1518 1.15774 91.473C0.318183 94.783 -0.0131351 98.0543 0.0061646 102.844L0.0254647 106.932L0.475801 104.986C2.03268 98.3471 5.56138 91.6853 10.2384 86.5643C18.7144 77.2971 29.7251 71.5907 48.7036 66.6273C59.6146 63.7645 66.8457 61.2136 74.5239 57.4951C86.6637 51.615 96.1915 44.0976 102.953 35.1231C104.433 33.1545 106.655 29.8059 106.832 29.2816C106.89 29.0661 109.345 30.8771 113.555 34.2642C114.858 35.3354 115.99 36.1524 116.048 36.0945C116.244 35.9015 115.093 0.209169 114.9 -0.00313242C114.858 -0.0224321 112.211 1.66954 108.994 3.79256Z" fill="#00AD74"/>
</g>
<mask id="mask1_285_1208" style="mask-type:luminance" maskUnits="userSpaceOnUse" x="76" y="65" width="18" height="43">
<path d="M76.2002 65.3727H93.4931V107.424H76.2002V65.3727Z" fill="white"/>
</mask>
<g mask="url(#mask1_285_1208)">
<path d="M76.3738 86.5835V107.418H93.1327V65.749H76.3738V86.5835Z" fill="#00AD74"/>
</g>
<mask id="mask2_285_1208" style="mask-type:luminance" maskUnits="userSpaceOnUse" x="49" y="76" width="18" height="32">
<path d="M49.0256 76.0778H66.3185V107.424H49.0256V76.0778Z" fill="white"/>
</mask>
<g mask="url(#mask2_285_1208)">
<path d="M49.4826 76.422C49.3475 76.4799 49.2896 81.7938 49.2896 91.9586V107.418H65.8523L65.8137 91.8814L65.7558 76.3608H57.7269C53.304 76.3608 49.6016 76.3801 49.4826 76.422Z" fill="#00AD74"/>
</g>
<mask id="mask3_285_1208" style="mask-type:luminance" maskUnits="userSpaceOnUse" x="21" y="91" width="19" height="17">
<path d="M21.8508 91.7239H39.1437V107.425H21.8508V91.7239Z" fill="white"/>
</mask>
<g mask="url(#mask3_285_1208)">
<path d="M22.0085 99.7271V107.418H38.7643V92.036H22.0085V99.7271Z" fill="#00AD74"/>
</g>
</svg>
